<svg xmlns="http://www.w3.org/2000/svg" xmlns:v="https://svgstorm.com"
viewBox = "0 0 749 749"
width="749"
height="749">
<g fill="None" fill-opacity="0.0" stroke="#FEFEFE" stroke-opacity="1.00" stroke-width="0.3"><path d="
M 0.00 749.00 
L 749.00 749.00
L 749.00 0.00
L 0.00 0.00
L 0.00 749.00
M 342.00 445.00 
C 342.91 448.22 328.32 446.88 323.00 447.00 C 317.68 447.12 305.91 447.01 300.00 447.00 C 294.09 446.99 282.32 447.14 277.00 447.00 C 271.68 446.86 256.08 448.24 257.00 445.00
C 258.43 439.97 266.11 438.00 267.77 431.77 C 269.44 425.54 272.00 419.16 272.00 412.00
C 272.00 405.90 272.64 399.02 272.00 393.00 C 271.36 386.98 273.71 379.73 272.00 374.00
C 266.57 362.40 253.22 354.75 245.75 344.25 C 238.28 333.75 227.40 324.93 219.25 314.75 C 211.09 304.58 200.97 295.32 193.00 285.00
C 219.67 285.00 246.33 285.00 273.00 285.00
C 263.57 303.39 289.63 314.94 298.00 329.00
C 309.94 317.68 333.03 303.81 326.00 285.00
C 352.33 285.00 378.67 285.00 405.00 285.00
C 397.97 294.73 389.62 303.06 381.25 312.25 C 372.88 321.43 366.20 330.03 357.25 339.25 C 348.29 348.46 343.29 356.78 333.23 366.23 C 323.17 375.68 325.93 396.18 326.00 410.00 C 326.07 423.82 330.66 436.54 342.00 445.00
M 525.00 315.00 
C 526.93 325.01 526.78 339.06 525.00 349.00
C 523.56 370.13 504.68 384.01 484.00 383.00
C 498.70 405.02 513.97 427.89 535.00 445.00
C 535.89 448.12 522.62 446.94 517.00 447.00 C 511.38 447.06 500.53 447.06 494.00 447.00 C 487.47 446.94 478.87 447.25 472.00 447.00 C 465.13 446.75 456.12 448.02 450.00 446.00
C 454.50 441.31 452.87 433.28 452.22 427.78 C 451.58 422.28 447.92 415.56 446.08 410.92 C 444.23 406.29 439.35 399.81 437.70 396.30 C 436.04 392.80 429.03 383.20 428.00 385.00
C 429.83 396.76 429.00 410.49 429.00 423.00
C 429.00 431.80 431.32 439.92 438.00 446.00
C 432.51 447.94 425.26 446.82 419.00 447.00 C 412.74 447.18 404.06 446.99 398.00 447.00 C 391.94 447.01 382.23 447.14 377.00 447.00 C 371.77 446.86 359.07 448.28 360.00 445.00
C 361.49 439.77 368.99 438.17 370.77 431.77 C 372.56 425.38 375.00 418.33 375.00 411.00
C 375.00 398.49 373.70 383.24 375.00 371.00 C 376.30 358.76 371.06 342.57 376.00 332.00
C 380.01 323.42 388.06 320.57 393.25 312.25 C 398.44 303.93 405.60 301.59 411.25 292.25 C 416.90 282.90 431.06 284.85 442.00 285.00 C 452.94 285.15 468.04 285.26 479.00 285.00 C 489.96 284.74 501.63 285.97 510.08 291.92 C 518.54 297.87 524.19 304.85 525.00 315.00
M 663.00 322.00 
C 663.00 328.67 663.00 335.33 663.00 342.00
C 656.00 341.81 647.89 342.26 641.00 342.00 C 634.11 341.74 625.48 342.50 619.00 342.00 C 612.52 341.50 601.37 343.92 600.00 340.00
C 601.88 335.37 609.62 337.96 608.99 330.99 C 608.36 324.03 610.85 319.83 603.00 318.00
C 596.24 317.25 588.80 317.86 582.00 318.00
C 561.84 318.40 563.98 334.72 565.00 351.00 C 566.02 367.28 563.44 385.34 565.00 401.00 C 566.56 416.66 590.73 414.40 603.00 413.00 C 615.27 411.60 608.82 384.82 600.00 380.00
C 619.00 380.00 638.00 380.00 657.00 380.00
C 652.36 390.50 638.98 401.00 627.00 398.00 C 615.02 395.00 619.91 408.66 621.00 413.00
C 610.21 413.37 607.24 427.97 607.00 437.00
C 601.67 435.83 595.45 438.00 595.00 444.00
C 591.44 449.24 580.82 447.00 574.00 447.00 C 567.18 447.00 556.95 448.36 551.00 446.00
C 536.95 440.42 526.88 423.35 516.75 413.25 C 506.62 403.14 514.67 396.06 512.00 384.00
C 526.51 377.25 535.06 362.47 535.00 346.00 C 534.94 329.53 538.45 306.11 525.00 294.00
C 546.01 279.59 571.26 286.06 597.00 285.00 C 622.74 283.94 652.86 285.79 679.00 285.00
C 668.42 294.71 661.71 307.38 663.00 322.00
M 73.00 341.00 
C 66.06 342.72 56.68 342.29 49.00 342.00 C 41.32 341.71 31.73 343.48 25.00 341.00
C 14.53 337.13 26.13 319.14 28.93 310.93 C 31.73 302.72 35.63 284.39 49.00 286.00 C 62.37 287.62 80.38 283.70 94.00 286.00 C 107.62 288.30 94.62 305.66 91.69 314.69 C 88.77 323.73 83.93 338.29 73.00 341.00
M 185.00 286.00 
C 191.03 298.20 203.39 307.51 212.00 318.00
C 206.63 326.52 209.12 337.50 196.97 340.97 C 184.83 344.45 172.83 339.49 159.00 342.00 C 145.17 344.51 139.65 336.39 145.92 324.92 C 152.20 313.46 151.68 308.06 156.77 296.77 C 161.86 285.48 172.93 284.80 185.00 286.00
M 139.00 338.00 
C 146.86 341.20 137.68 353.16 136.08 359.08 C 134.47 364.99 129.30 372.83 127.22 380.22 C 125.15 387.61 119.16 393.47 110.00 393.00 C 100.84 392.53 89.39 391.78 80.00 393.00 C 70.61 394.22 58.43 391.93 62.98 381.98 C 67.52 372.03 67.30 368.10 71.32 360.32 C 75.34 352.54 74.31 345.01 81.25 340.25 C 88.19 335.49 100.80 337.38 109.00 338.00 C 117.20 338.62 131.42 334.91 139.00 338.00
M 230.00 338.00 
C 234.00 339.48 239.66 349.33 243.25 352.75 C 246.84 356.17 256.08 363.14 253.07 369.07 C 250.06 375.01 249.37 381.90 244.25 388.25 C 239.13 394.59 229.88 392.36 221.00 393.00 C 212.12 393.64 203.30 391.38 193.00 393.00 C 182.70 394.62 181.87 384.96 185.92 377.92 C 189.98 370.88 190.17 363.79 193.77 357.77 C 197.37 351.75 196.56 341.94 203.75 339.75 C 210.94 337.55 222.72 335.31 230.00 338.00
M 671.00 388.00 
C 661.34 389.75 651.40 398.81 642.00 406.00
C 642.19 400.68 648.49 397.30 653.70 394.70 C 658.90 392.09 663.23 382.73 671.00 388.00
M 156.00 446.00 
C 149.06 447.72 139.68 447.29 132.00 447.00 C 124.32 446.71 114.73 448.48 108.00 446.00
C 97.59 442.16 109.18 424.17 111.98 415.98 C 114.77 407.78 118.59 389.29 132.00 391.00 C 145.42 392.71 163.33 388.66 177.00 391.00 C 190.67 393.34 177.68 410.69 174.69 419.69 C 171.71 428.70 166.93 443.29 156.00 446.00
M 247.00 446.00 
C 242.94 448.90 230.29 447.30 226.00 446.00
C 215.80 442.90 224.04 430.74 226.92 422.92 C 229.81 415.10 232.59 406.21 236.77 397.77 C 240.95 389.33 256.33 390.59 265.00 391.00
C 265.77 401.94 264.52 414.11 262.07 424.07 C 259.63 434.03 251.13 437.85 247.00 446.00
M 661.00 400.00 
C 663.78 397.23 666.60 395.91 670.00 398.00
C 672.65 395.47 667.90 393.87 669.00 391.00
C 673.03 388.33 676.79 399.29 672.74 399.74 C 668.70 400.19 665.24 400.82 661.00 400.00
M 657.00 401.00 
C 658.88 401.41 661.30 401.36 664.00 402.00
C 669.30 403.25 681.52 402.36 671.00 407.00
C 673.84 407.59 677.98 405.78 680.00 408.00
C 673.13 407.29 667.51 411.23 661.00 412.00
C 665.59 414.91 673.48 411.08 678.00 414.00
C 671.07 414.53 664.19 415.46 657.00 415.00
C 661.26 417.89 668.81 414.09 673.00 417.00
C 669.73 419.83 663.20 416.14 660.00 419.00
C 661.79 421.69 670.51 418.31 670.00 421.00
C 669.70 421.78 669.16 422.15 669.00 423.00
C 668.91 423.48 669.00 424.00 669.00 424.00
C 668.86 424.80 668.15 425.16 668.00 426.00
C 667.91 426.48 668.00 427.00 668.00 427.00
C 666.36 429.54 668.98 428.10 669.00 429.00
C 672.46 420.64 678.10 413.09 689.00 415.00
C 689.08 416.71 690.24 417.90 691.00 420.00
C 688.25 418.17 685.09 417.84 682.00 417.00
C 682.96 421.43 685.03 425.54 686.00 430.00
C 682.89 430.08 683.44 425.89 682.00 424.00
C 676.16 426.39 678.08 432.78 680.00 437.00
C 672.36 432.87 677.57 424.66 681.00 420.00
C 672.88 422.72 669.84 436.96 680.23 440.77 C 690.63 444.58 699.71 433.25 696.00 424.00
C 699.74 429.84 698.42 437.97 694.00 443.00
C 698.83 443.65 704.99 441.69 709.00 444.00
C 674.00 448.59 636.84 444.72 601.00 446.00
C 603.30 440.34 613.97 443.24 619.00 444.00
C 615.23 440.50 611.65 433.31 615.00 428.00
C 611.42 442.78 634.82 445.95 637.00 432.00
C 631.92 431.17 627.56 426.40 622.00 426.00
C 622.00 427.00 622.00 428.00 622.00 429.00
C 621.34 430.35 622.50 432.58 622.00 434.00
C 620.84 432.08 618.76 435.32 618.00 433.00
C 616.20 429.02 620.81 423.95 618.00 420.00
C 624.58 419.16 633.37 433.36 637.00 424.00
C 634.09 423.40 631.90 420.92 629.00 420.00
C 631.76 418.54 635.65 420.64 631.00 417.00
C 634.73 416.26 638.95 422.65 641.00 417.00
C 636.27 413.49 628.02 413.08 626.00 407.00
C 630.89 407.54 636.71 411.78 641.00 410.00
C 636.00 408.42 631.17 406.19 626.00 405.00
C 634.12 401.21 643.48 411.79 651.00 406.00
C 653.24 405.92 656.07 406.77 657.00 409.00
C 661.74 406.64 655.49 403.29 652.00 404.00
C 651.46 401.71 657.09 397.20 657.00 401.00
M 690.00 411.00 
C 686.52 406.16 680.23 403.20 677.00 399.00
C 683.17 398.97 687.87 406.03 690.00 411.00
M 134.00 491.00 
C 133.37 493.73 133.69 498.21 134.00 501.00
C 134.60 503.57 134.66 505.70 136.00 508.00
C 130.67 508.00 125.33 508.00 120.00 508.00
C 130.70 493.61 114.21 481.47 108.00 470.00
C 113.00 470.00 118.00 470.00 123.00 470.00
C 121.72 474.31 126.38 476.43 127.00 480.00
C 131.07 479.00 134.28 474.18 134.00 470.00
C 139.00 470.00 144.00 470.00 149.00 470.00
C 144.40 477.31 138.28 483.56 134.00 491.00
M 172.00 470.00 
C 171.17 482.68 175.21 496.71 181.00 508.00
C 176.00 508.00 171.00 508.00 166.00 508.00
C 166.80 505.49 167.28 502.81 167.00 500.00
C 160.63 498.59 152.46 500.65 158.00 508.00
C 152.67 508.00 147.33 508.00 142.00 508.00
C 148.75 497.06 152.39 482.79 151.00 470.00
C 158.00 470.00 165.00 470.00 172.00 470.00
M 228.00 476.00 
C 226.92 483.58 226.92 494.42 228.00 502.00
C 228.59 504.19 229.13 505.91 230.00 508.00
C 224.67 508.00 219.33 508.00 214.00 508.00
C 217.18 504.11 218.24 497.26 216.00 493.00
C 213.77 495.93 212.64 506.27 207.92 506.92 C 203.20 507.56 202.21 495.23 198.00 494.00
C 197.52 499.06 198.45 503.78 201.00 508.00
C 195.67 508.00 190.33 508.00 185.00 508.00
C 189.78 496.74 189.59 481.11 185.00 470.00
C 190.33 470.00 195.67 470.00 201.00 470.00
C 194.62 476.77 204.59 485.07 208.00 491.00
C 210.47 484.34 220.90 476.63 214.00 470.00
C 219.33 470.00 224.67 470.00 230.00 470.00
C 230.20 472.34 227.07 473.38 228.00 476.00
M 263.00 470.00 
C 261.96 482.73 266.16 496.58 272.00 508.00
C 267.00 508.00 262.00 508.00 257.00 508.00
C 257.80 505.49 258.28 502.81 258.00 500.00
C 251.84 498.48 243.07 500.84 249.00 508.00
C 243.67 508.00 238.33 508.00 233.00 508.00
C 239.71 497.04 243.41 482.79 242.00 470.00
C 249.00 470.00 256.00 470.00 263.00 470.00
M 308.00 476.00 
C 306.92 483.58 306.92 494.42 308.00 502.00
C 308.59 504.19 309.13 505.91 310.00 508.00
C 304.67 508.00 299.33 508.00 294.00 508.00
C 297.66 503.94 297.02 498.25 297.00 493.00
C 286.26 489.46 288.15 502.04 291.00 508.00
C 285.67 508.00 280.33 508.00 275.00 508.00
C 279.87 497.26 279.86 480.71 275.00 470.00
C 280.33 470.00 285.67 470.00 291.00 470.00
C 289.37 474.06 285.72 486.01 293.01 485.99 C 300.30 485.97 297.01 473.54 294.00 470.00
C 299.33 470.00 304.67 470.00 310.00 470.00
C 310.20 472.34 307.07 473.38 308.00 476.00
M 344.00 470.00 
C 342.63 482.79 346.76 496.75 353.00 508.00
C 347.67 508.00 342.33 508.00 337.00 508.00
C 343.00 500.84 334.11 498.50 328.00 500.00
C 327.33 502.94 329.09 505.18 329.00 508.00
C 324.00 508.00 319.00 508.00 314.00 508.00
C 320.29 496.68 323.92 482.75 323.00 470.00
C 330.00 470.00 337.00 470.00 344.00 470.00
M 403.00 476.00 
C 404.28 479.47 403.83 482.64 403.00 486.00
C 402.11 489.61 401.00 493.70 396.00 493.00
C 397.14 498.85 402.91 502.71 405.00 508.00
C 399.67 508.00 394.33 508.00 389.00 508.00
C 389.43 502.95 388.25 497.58 385.00 494.00
C 384.76 497.58 384.64 503.82 386.00 508.00
C 381.33 508.00 376.67 508.00 372.00 508.00
C 372.00 505.46 374.60 503.74 374.00 501.00
C 374.90 493.78 374.90 484.22 374.00 477.00
C 373.40 474.58 372.85 472.36 372.00 470.00
C 381.89 472.05 397.96 464.85 403.00 476.00
M 411.00 501.00 
C 411.90 493.78 411.90 484.22 411.00 477.00
C 410.40 474.58 409.85 472.36 409.00 470.00
C 414.33 470.00 419.67 470.00 425.00 470.00
C 420.13 480.74 420.15 497.29 425.00 508.00
C 419.67 508.00 414.33 508.00 409.00 508.00
C 409.00 505.46 411.60 503.74 411.00 501.00
M 428.00 508.00 
C 432.46 496.83 432.80 481.14 428.00 470.00
C 436.61 470.61 444.30 469.19 453.00 470.00 C 461.70 470.81 460.32 482.87 460.00 489.00 C 459.68 495.13 462.39 506.61 453.92 507.92 C 445.46 509.24 436.51 507.10 428.00 508.00
M 493.00 470.00 
C 493.00 473.67 493.00 477.33 493.00 481.00
C 487.84 476.49 480.45 478.39 474.00 478.00
C 471.52 485.16 478.54 487.83 484.00 485.00
C 486.43 492.95 480.51 494.09 474.00 493.00
C 471.08 504.13 487.48 500.56 493.00 497.00
C 493.00 500.67 493.00 504.33 493.00 508.00
C 482.33 508.00 471.67 508.00 461.00 508.00
C 465.78 496.88 465.77 481.10 461.00 470.00
C 471.67 470.00 482.33 470.00 493.00 470.00
M 520.00 493.00 
C 522.51 498.51 526.13 503.33 530.00 508.00
C 524.67 508.00 519.33 508.00 514.00 508.00
C 514.70 502.76 511.93 498.50 510.00 494.00
C 508.07 497.88 508.48 504.14 511.00 508.00
C 506.00 508.00 501.00 508.00 496.00 508.00
C 501.11 496.80 500.25 481.15 496.00 470.00
C 504.12 471.62 518.31 467.02 525.08 471.92 C 531.85 476.83 528.79 493.44 520.00 493.00
M 561.00 470.00 
C 559.68 473.38 560.00 477.27 560.00 481.00
C 557.07 476.76 541.07 475.74 542.01 482.01 C 542.94 488.28 557.87 482.55 559.92 489.08 C 561.96 495.61 564.20 503.34 557.25 507.25 C 550.30 511.16 539.58 505.88 532.00 508.00
C 533.32 504.62 533.00 500.73 533.00 497.00
C 537.74 501.74 544.89 499.50 551.00 500.00
C 551.05 488.37 529.10 496.27 532.00 480.00 C 534.90 463.73 549.29 472.38 561.00 470.00
M 590.00 478.00 
C 587.97 479.41 587.89 495.75 589.00 498.00
C 590.97 500.74 593.77 499.99 597.00 500.00
C 593.72 491.75 600.62 492.65 607.00 493.00
C 609.17 494.52 607.65 499.56 608.00 502.00
C 608.59 504.19 609.13 505.91 610.00 508.00
C 602.92 505.91 583.37 512.33 579.70 504.30 C 576.04 496.26 575.78 481.80 579.77 473.77 C 583.77 465.74 602.92 472.00 610.00 470.00
C 607.81 474.52 606.41 479.55 607.00 485.00
C 603.33 485.00 599.67 485.00 596.00 485.00
C 598.88 479.93 595.70 476.36 590.00 478.00
M 616.00 501.00 
C 616.90 493.78 616.90 484.22 616.00 477.00
C 615.40 474.58 614.85 472.36 614.00 470.00
C 619.33 470.00 624.67 470.00 630.00 470.00
C 623.94 478.36 628.34 490.14 627.00 500.00
C 632.84 499.65 639.53 501.50 644.00 497.00
C 644.00 500.67 644.00 504.33 644.00 508.00
C 634.00 508.00 624.00 508.00 614.00 508.00
C 614.00 505.46 616.60 503.74 616.00 501.00
M 677.00 477.00 
C 676.06 484.58 678.17 493.14 676.00 500.00
C 672.32 511.65 650.69 511.67 647.00 500.00
C 644.81 493.09 646.94 484.58 646.00 477.00
C 645.40 474.58 644.85 472.36 644.00 470.00
C 649.33 470.00 654.67 470.00 660.00 470.00
C 654.03 477.88 659.05 482.01 657.00 492.00 C 654.95 501.99 668.08 501.97 666.00 492.00 C 663.92 482.03 669.19 477.74 663.00 470.00
C 668.33 470.00 673.67 470.00 679.00 470.00
C 679.00 472.54 676.40 474.26 677.00 477.00
M 711.00 489.00 
C 717.66 492.45 717.96 504.25 709.92 506.92 C 701.88 509.59 690.67 507.16 682.00 508.00
C 686.67 496.90 686.67 481.11 682.00 470.00
C 695.51 467.68 722.69 469.58 711.00 489.00 Z"/>
</g>
<g fill="None" fill-opacity="0.0" stroke="#1E439C" stroke-opacity="1.00" stroke-width="0.3"><path d="
M 272.00 374.00 
C 276.29 383.18 272.93 402.41 272.00 412.00
C 272.00 419.16 269.44 425.54 267.77 431.77 C 266.11 438.00 258.43 439.97 257.00 445.00
C 284.26 446.66 314.81 446.67 342.00 445.00
C 330.66 436.54 326.07 423.82 326.00 410.00 C 325.93 396.18 323.17 375.68 333.23 366.23 C 343.29 356.78 348.29 348.46 357.25 339.25 C 366.20 330.03 372.88 321.43 381.25 312.25 C 389.62 303.06 397.97 294.73 405.00 285.00
C 378.67 285.00 352.33 285.00 326.00 285.00
C 333.03 303.81 309.94 317.68 298.00 329.00
C 289.63 314.94 263.57 303.39 273.00 285.00
C 246.33 285.00 219.67 285.00 193.00 285.00
C 200.97 295.32 211.09 304.58 219.25 314.75 C 227.40 324.93 238.28 333.75 245.75 344.25 C 253.22 354.75 266.57 362.40 272.00 374.00 Z"/>
</g>
<g fill="None" fill-opacity="0.0" stroke="#1E439C" stroke-opacity="1.00" stroke-width="0.3"><path d="
M 376.00 332.00 
C 372.42 343.94 377.24 359.47 376.00 372.00 C 374.76 384.53 376.16 399.06 375.00 411.00
C 375.00 418.33 372.56 425.38 370.77 431.77 C 368.99 438.17 361.49 439.77 360.00 445.00
C 385.10 447.33 412.15 445.33 438.00 446.00
C 431.32 439.92 429.00 431.80 429.00 423.00
C 428.54 418.20 426.54 410.43 428.00 405.00 C 429.46 399.57 425.25 389.79 428.00 385.00
C 429.03 383.20 436.04 392.80 437.70 396.30 C 439.35 399.81 444.23 406.29 446.08 410.92 C 447.92 415.56 451.58 422.28 452.22 427.78 C 452.87 433.28 454.50 441.31 450.00 446.00
C 478.17 445.33 507.66 447.33 535.00 445.00
C 513.97 427.89 498.70 405.02 484.00 383.00
C 504.68 384.01 523.56 370.13 525.00 349.00
C 525.74 338.08 525.87 325.91 525.00 315.00
C 524.19 304.85 518.54 297.87 510.08 291.92 C 501.63 285.97 489.96 284.74 479.00 285.00 C 468.04 285.26 452.94 285.15 442.00 285.00 C 431.06 284.85 416.90 282.90 411.25 292.25 C 405.60 301.59 398.44 303.93 393.25 312.25 C 388.06 320.57 380.01 323.42 376.00 332.00
M 461.00 348.00 
C 450.82 349.82 438.91 348.72 428.00 349.00
C 428.00 340.67 428.00 332.33 428.00 324.00
C 427.16 321.35 425.96 319.11 424.00 317.00
C 437.01 318.61 456.14 313.87 467.69 319.31 C 479.25 324.74 474.08 349.67 461.00 348.00 Z"/>
</g>
<g fill="None" fill-opacity="0.0" stroke="#1F449C" stroke-opacity="1.00" stroke-width="0.3"><path d="
M 551.00 446.00 
C 557.27 447.53 567.73 445.89 574.00 446.00 C 580.27 446.11 591.06 448.18 595.00 444.00
C 595.45 438.00 601.67 435.83 607.00 437.00
C 607.24 427.97 610.21 413.37 621.00 413.00
C 619.91 408.66 615.02 395.00 627.00 398.00 C 638.98 401.00 652.36 390.50 657.00 380.00
C 638.00 380.00 619.00 380.00 600.00 380.00
C 608.82 384.82 615.27 411.60 603.00 413.00 C 590.73 414.40 566.56 416.66 565.00 401.00 C 563.44 385.34 566.02 367.28 565.00 351.00 C 563.98 334.72 561.84 318.40 582.00 318.00
C 588.51 317.21 596.52 316.49 603.00 318.00
C 610.85 319.83 608.36 324.03 608.99 330.99 C 609.62 337.96 601.88 335.37 600.00 340.00
C 619.76 342.33 641.49 340.34 662.00 341.00
C 662.66 334.84 660.68 327.34 663.00 322.00
C 661.71 307.38 668.42 294.71 679.00 285.00
C 652.86 285.79 622.74 283.94 597.00 285.00 C 571.26 286.06 546.01 279.59 525.00 294.00
C 538.45 306.11 534.94 329.53 535.00 346.00 C 535.06 362.47 526.51 377.25 512.00 384.00
C 514.67 396.06 506.62 403.14 516.75 413.25 C 526.88 423.35 536.95 440.42 551.00 446.00 Z"/>
</g>
<g fill="None" fill-opacity="0.0" stroke="#000000" stroke-opacity="1.00" stroke-width="0.3"><path d="
M 25.00 341.00 
C 32.39 342.64 41.39 340.74 49.00 341.00 C 56.61 341.26 65.44 341.94 73.00 341.00
C 83.93 338.29 88.77 323.73 91.69 314.69 C 94.62 305.66 107.62 288.30 94.00 286.00 C 80.38 283.70 62.37 287.62 49.00 286.00 C 35.63 284.39 31.73 302.72 28.93 310.93 C 26.13 319.14 14.53 337.13 25.00 341.00 Z"/>
</g>
<g fill="None" fill-opacity="0.0" stroke="#000000" stroke-opacity="1.00" stroke-width="0.3"><path d="
M 185.00 286.00 
C 172.93 284.80 161.86 285.48 156.77 296.77 C 151.68 308.06 152.20 313.46 145.92 324.92 C 139.65 336.39 145.17 344.51 159.00 342.00 C 172.83 339.49 184.83 344.45 196.97 340.97 C 209.12 337.50 206.63 326.52 212.00 318.00
C 203.39 307.51 191.03 298.20 185.00 286.00 Z"/>
</g>
<g fill="None" fill-opacity="0.0" stroke="#9DAED3" stroke-opacity="1.00" stroke-width="0.3"><path d="
M 525.00 349.00 
C 526.78 339.06 526.93 325.01 525.00 315.00
C 525.87 325.91 525.74 338.08 525.00 349.00 Z"/>
</g>
<g fill="None" fill-opacity="0.0" stroke="#FCFCFD" stroke-opacity="1.00" stroke-width="0.3"><path d="
M 428.00 324.00 
C 430.25 331.11 428.40 340.14 429.00 348.00
C 439.67 348.00 450.33 348.00 461.00 348.00
C 474.08 349.67 479.25 324.74 467.69 319.31 C 456.14 313.87 437.01 318.61 424.00 317.00
C 425.96 319.11 427.16 321.35 428.00 324.00 Z"/>
</g>
<g fill="None" fill-opacity="0.0" stroke="#95A7D0" stroke-opacity="1.00" stroke-width="0.3"><path d="
M 582.00 318.00 
C 588.80 317.86 596.24 317.25 603.00 318.00
C 596.52 316.49 588.51 317.21 582.00 318.00 Z"/>
</g>
<g fill="None" fill-opacity="0.0" stroke="#98A9D1" stroke-opacity="1.00" stroke-width="0.3"><path d="
M 600.00 340.00 
C 601.37 343.92 612.52 341.50 619.00 342.00 C 625.48 342.50 634.11 341.74 641.00 342.00 C 647.89 342.26 656.00 341.81 663.00 342.00
C 663.00 335.33 663.00 328.67 663.00 322.00
C 660.68 327.34 662.66 334.84 662.00 341.00
C 641.49 340.34 619.76 342.33 600.00 340.00 Z"/>
</g>
<g fill="None" fill-opacity="0.0" stroke="#8EA1CD" stroke-opacity="1.00" stroke-width="0.3"><path d="
M 461.00 348.00 
C 450.33 348.00 439.67 348.00 429.00 348.00
C 428.40 340.14 430.25 331.11 428.00 324.00
C 428.00 332.33 428.00 340.67 428.00 349.00
C 438.91 348.72 450.82 349.82 461.00 348.00 Z"/>
</g>
<g fill="None" fill-opacity="0.0" stroke="#7C93C5" stroke-opacity="1.00" stroke-width="0.3"><path d="
M 375.00 411.00 
C 376.16 399.06 374.76 384.53 376.00 372.00 C 377.24 359.47 372.42 343.94 376.00 332.00
C 371.06 342.57 376.30 358.76 375.00 371.00 C 373.70 383.24 375.00 398.49 375.00 411.00 Z"/>
</g>
<g fill="None" fill-opacity="0.0" stroke="#000000" stroke-opacity="1.00" stroke-width="0.3"><path d="
M 139.00 338.00 
C 131.42 334.91 117.20 338.62 109.00 338.00 C 100.80 337.38 88.19 335.49 81.25 340.25 C 74.31 345.01 75.34 352.54 71.32 360.32 C 67.30 368.10 67.52 372.03 62.98 381.98 C 58.43 391.93 70.61 394.22 80.00 393.00 C 89.39 391.78 100.84 392.53 110.00 393.00 C 119.16 393.47 125.15 387.61 127.22 380.22 C 129.30 372.83 134.47 364.99 136.08 359.08 C 137.68 353.16 146.86 341.20 139.00 338.00 Z"/>
</g>
<g fill="None" fill-opacity="0.0" stroke="#000000" stroke-opacity="1.00" stroke-width="0.3"><path d="
M 230.00 338.00 
C 222.72 335.31 210.94 337.55 203.75 339.75 C 196.56 341.94 197.37 351.75 193.77 357.77 C 190.17 363.79 189.98 370.88 185.92 377.92 C 181.87 384.96 182.70 394.62 193.00 393.00 C 203.30 391.38 212.12 393.64 221.00 393.00 C 229.88 392.36 239.13 394.59 244.25 388.25 C 249.37 381.90 250.06 375.01 253.07 369.07 C 256.08 363.14 246.84 356.17 243.25 352.75 C 239.66 349.33 234.00 339.48 230.00 338.00 Z"/>
</g>
<g fill="None" fill-opacity="0.0" stroke="#707070" stroke-opacity="1.00" stroke-width="0.3"><path d="
M 73.00 341.00 
C 65.44 341.94 56.61 341.26 49.00 341.00 C 41.39 340.74 32.39 342.64 25.00 341.00
C 31.73 343.48 41.32 341.71 49.00 342.00 C 56.68 342.29 66.06 342.72 73.00 341.00 Z"/>
</g>
<g fill="None" fill-opacity="0.0" stroke="#9BACD3" stroke-opacity="1.00" stroke-width="0.3"><path d="
M 272.00 412.00 
C 272.93 402.41 276.29 383.18 272.00 374.00
C 273.71 379.73 271.36 386.98 272.00 393.00 C 272.64 399.02 272.00 405.90 272.00 412.00 Z"/>
</g>
<g fill="None" fill-opacity="0.0" stroke="#97A8D1" stroke-opacity="1.00" stroke-width="0.3"><path d="
M 429.00 423.00 
C 429.00 410.49 429.83 396.76 428.00 385.00
C 425.25 389.79 429.46 399.57 428.00 405.00 C 426.54 410.43 428.54 418.20 429.00 423.00 Z"/>
</g>
<g fill="None" fill-opacity="0.0" stroke="#3C5DAA" stroke-opacity="1.00" stroke-width="0.3"><path d="
M 671.00 388.00 
C 663.23 382.73 658.90 392.09 653.70 394.70 C 648.49 397.30 642.19 400.68 642.00 406.00
C 651.40 398.81 661.34 389.75 671.00 388.00 Z"/>
</g>
<g fill="None" fill-opacity="0.0" stroke="#000000" stroke-opacity="1.00" stroke-width="0.3"><path d="
M 108.00 446.00 
C 115.39 447.64 124.39 445.74 132.00 446.00 C 139.61 446.26 148.44 446.94 156.00 446.00
C 166.93 443.29 171.71 428.70 174.69 419.69 C 177.68 410.69 190.67 393.34 177.00 391.00 C 163.33 388.66 145.42 392.71 132.00 391.00 C 118.59 389.29 114.77 407.78 111.98 415.98 C 109.18 424.17 97.59 442.16 108.00 446.00 Z"/>
</g>
<g fill="None" fill-opacity="0.0" stroke="#000000" stroke-opacity="1.00" stroke-width="0.3"><path d="
M 226.00 446.00 
C 230.21 446.71 243.25 447.83 247.00 446.00
C 251.13 437.85 259.63 434.03 262.07 424.07 C 264.52 414.11 265.77 401.94 265.00 391.00
C 256.33 390.59 240.95 389.33 236.77 397.77 C 232.59 406.21 229.81 415.10 226.92 422.92 C 224.04 430.74 215.80 442.90 226.00 446.00 Z"/>
</g>
<g fill="None" fill-opacity="0.0" stroke="#2E51A3" stroke-opacity="1.00" stroke-width="0.3"><path d="
M 661.00 400.00 
C 665.24 400.82 668.70 400.19 672.74 399.74 C 676.79 399.29 673.03 388.33 669.00 391.00
C 667.90 393.87 672.65 395.47 670.00 398.00
C 666.60 395.91 663.78 397.23 661.00 400.00 Z"/>
</g>
<g fill="None" fill-opacity="0.0" stroke="#284DA1" stroke-opacity="1.00" stroke-width="0.3"><path d="
M 657.00 409.00 
C 653.30 410.84 652.86 406.27 651.00 406.00
C 643.48 411.79 634.12 401.21 626.00 405.00
C 631.17 406.19 636.00 408.42 641.00 410.00
C 636.71 411.78 630.89 407.54 626.00 407.00
C 628.02 413.08 636.27 413.49 641.00 417.00
C 638.95 422.65 634.73 416.26 631.00 417.00
C 635.65 420.64 631.76 418.54 629.00 420.00
C 631.90 420.92 634.09 423.40 637.00 424.00
C 633.37 433.36 624.58 419.16 618.00 420.00
C 620.81 423.95 616.20 429.02 618.00 433.00
C 619.60 432.47 618.72 430.25 619.00 429.00
C 620.77 431.98 620.13 431.68 622.00 429.00
C 622.00 428.00 622.00 427.00 622.00 426.00
C 627.56 426.40 631.92 431.17 637.00 432.00
C 634.82 445.95 611.42 442.78 615.00 428.00
C 611.65 433.31 615.23 440.50 619.00 444.00
C 613.97 443.24 603.30 440.34 601.00 446.00
C 636.84 444.72 674.00 448.59 709.00 444.00
C 704.99 441.69 698.83 443.65 694.00 443.00
C 698.42 437.97 699.74 429.84 696.00 424.00
C 699.71 433.25 690.63 444.58 680.23 440.77 C 669.84 436.96 672.88 422.72 681.00 420.00
C 677.57 424.66 672.36 432.87 680.00 437.00
C 678.08 432.78 676.16 426.39 682.00 424.00
C 683.44 425.89 682.89 430.08 686.00 430.00
C 685.03 425.54 682.96 421.43 682.00 417.00
C 685.09 417.84 688.25 418.17 691.00 420.00
C 690.24 417.90 689.08 416.71 689.00 415.00
C 678.10 413.09 672.46 420.64 669.00 429.00
C 668.55 430.10 668.08 431.50 667.00 432.00
C 664.83 433.01 660.95 431.79 659.00 431.00
C 659.53 429.40 661.75 430.28 663.00 430.00
C 664.17 429.57 665.79 430.33 667.00 430.00
C 664.72 429.15 665.33 426.74 668.00 427.00
C 668.00 427.00 667.91 426.48 668.00 426.00
C 666.17 426.02 663.54 426.33 663.00 424.00
C 665.00 424.00 667.00 424.00 669.00 424.00
C 669.00 424.00 668.91 423.48 669.00 423.00
C 666.82 423.05 663.37 423.72 662.00 422.00
C 663.77 419.97 667.48 421.47 670.00 421.00
C 670.51 418.31 661.79 421.69 660.00 419.00
C 663.20 416.14 669.73 419.83 673.00 417.00
C 668.81 414.09 661.26 417.89 657.00 415.00
C 664.19 415.46 671.07 414.53 678.00 414.00
C 673.48 411.08 665.59 414.91 661.00 412.00
C 667.51 411.23 673.13 407.29 680.00 408.00
C 677.98 405.78 673.84 407.59 671.00 407.00
C 681.52 402.36 669.30 403.25 664.00 402.00
C 662.75 401.87 661.84 401.40 659.77 402.79 C 657.70 404.17 655.95 400.37 657.00 401.00
C 657.09 397.20 651.46 401.71 652.00 404.00
C 655.49 403.29 661.74 406.64 657.00 409.00
M 651.00 411.00 
C 649.98 416.20 647.21 414.56 644.00 419.00
C 648.70 420.79 645.96 421.76 648.00 425.00
C 645.73 423.28 642.66 424.27 640.00 424.00
C 641.55 418.81 645.81 413.01 651.00 411.00
M 661.00 429.00 
C 657.51 428.24 657.43 422.90 656.00 420.00
C 659.14 420.89 660.63 425.78 661.00 429.00
M 647.00 434.00 
C 644.13 431.60 638.72 431.06 638.00 427.00
C 641.05 429.09 645.85 430.49 647.00 434.00
M 667.00 433.00 
C 663.58 435.21 658.18 433.42 654.00 434.00
C 657.42 431.79 662.82 433.58 667.00 433.00
M 674.00 440.00 
C 674.86 441.25 677.74 441.74 677.00 444.00
C 670.09 443.55 660.65 444.60 654.00 444.00 C 647.35 443.40 635.58 446.00 634.00 442.00
C 634.65 439.69 640.97 437.92 639.00 434.00
C 648.30 439.01 664.67 442.95 672.00 435.00
C 671.24 437.19 673.30 438.32 674.00 440.00 Z"/>
</g>
<g fill="None" fill-opacity="0.0" stroke="#3456A6" stroke-opacity="1.00" stroke-width="0.3"><path d="
M 690.00 411.00 
C 687.87 406.03 683.17 398.97 677.00 399.00
C 680.23 403.20 686.52 406.16 690.00 411.00 Z"/>
</g>
<g fill="None" fill-opacity="0.0" stroke="#8DA0CD" stroke-opacity="1.00" stroke-width="0.3"><path d="
M 664.00 402.00 
C 661.30 401.36 658.88 401.41 657.00 401.00
C 655.95 400.37 657.70 404.17 659.77 402.79 C 661.84 401.40 662.75 401.87 664.00 402.00 Z"/>
</g>
<g fill="None" fill-opacity="0.0" stroke="#8B9FCC" stroke-opacity="1.00" stroke-width="0.3"><path d="
M 657.00 409.00 
C 656.07 406.77 653.24 405.92 651.00 406.00
C 652.86 406.27 653.30 410.84 657.00 409.00 Z"/>
</g>
<g fill="None" fill-opacity="0.0" stroke="#CBD4E9" stroke-opacity="1.00" stroke-width="0.3"><path d="
M 651.00 411.00 
C 645.81 413.01 641.55 418.81 640.00 424.00
C 642.66 424.27 645.73 423.28 648.00 425.00
C 645.96 421.76 648.70 420.79 644.00 419.00
C 647.21 414.56 649.98 416.20 651.00 411.00 Z"/>
</g>
<g fill="None" fill-opacity="0.0" stroke="#BDC9E3" stroke-opacity="1.00" stroke-width="0.3"><path d="
M 661.00 429.00 
C 660.63 425.78 659.14 420.89 656.00 420.00
C 657.43 422.90 657.51 428.24 661.00 429.00 Z"/>
</g>
<g fill="None" fill-opacity="0.0" stroke="#AEBCDC" stroke-opacity="1.00" stroke-width="0.3"><path d="
M 669.00 423.00 
C 669.16 422.15 669.70 421.78 670.00 421.00
C 667.48 421.47 663.77 419.97 662.00 422.00
C 663.37 423.72 666.82 423.05 669.00 423.00 Z"/>
</g>
<g fill="None" fill-opacity="0.0" stroke="#98AAD2" stroke-opacity="1.00" stroke-width="0.3"><path d="
M 668.00 426.00 
C 668.15 425.16 668.86 424.80 669.00 424.00
C 667.00 424.00 665.00 424.00 663.00 424.00
C 663.54 426.33 666.17 426.02 668.00 426.00 Z"/>
</g>
<g fill="None" fill-opacity="0.0" stroke="#B9C5E1" stroke-opacity="1.00" stroke-width="0.3"><path d="
M 647.00 434.00 
C 645.85 430.49 641.05 429.09 638.00 427.00
C 638.72 431.06 644.13 431.60 647.00 434.00 Z"/>
</g>
<g fill="None" fill-opacity="0.0" stroke="#9BACD3" stroke-opacity="1.00" stroke-width="0.3"><path d="
M 663.00 430.00 
C 663.70 430.09 666.43 431.26 667.00 432.00
C 668.08 431.50 668.55 430.10 669.00 429.00
C 668.98 428.10 666.36 429.54 668.00 427.00
C 665.33 426.74 664.72 429.15 667.00 430.00
C 665.79 430.33 664.17 429.57 663.00 430.00 Z"/>
</g>
<g fill="None" fill-opacity="0.0" stroke="#B9C5E0" stroke-opacity="1.00" stroke-width="0.3"><path d="
M 618.00 433.00 
C 618.76 435.32 620.84 432.08 622.00 434.00
C 622.50 432.58 621.34 430.35 622.00 429.00
C 620.13 431.68 620.77 431.98 619.00 429.00
C 618.72 430.25 619.60 432.47 618.00 433.00 Z"/>
</g>
<g fill="None" fill-opacity="0.0" stroke="#5975B7" stroke-opacity="1.00" stroke-width="0.3"><path d="
M 667.00 432.00 
C 666.43 431.26 663.70 430.09 663.00 430.00
C 661.75 430.28 659.53 429.40 659.00 431.00
C 660.95 431.79 664.83 433.01 667.00 432.00 Z"/>
</g>
<g fill="None" fill-opacity="0.0" stroke="#607BB9" stroke-opacity="1.00" stroke-width="0.3"><path d="
M 667.00 433.00 
C 662.82 433.58 657.42 431.79 654.00 434.00
C 658.18 433.42 663.58 435.21 667.00 433.00 Z"/>
</g>
<g fill="None" fill-opacity="0.0" stroke="#F8FAFB" stroke-opacity="1.00" stroke-width="0.3"><path d="
M 634.00 442.00 
C 647.09 444.33 662.15 442.34 676.00 443.00
C 675.70 441.75 674.17 441.29 674.00 440.00
C 673.30 438.32 671.24 437.19 672.00 435.00
C 664.67 442.95 648.30 439.01 639.00 434.00
C 640.97 437.92 634.65 439.69 634.00 442.00 Z"/>
</g>
<g fill="None" fill-opacity="0.0" stroke="#7B90C5" stroke-opacity="1.00" stroke-width="0.3"><path d="
M 634.00 442.00 
C 635.58 446.00 647.35 443.40 654.00 444.00 C 660.65 444.60 670.09 443.55 677.00 444.00
C 677.74 441.74 674.86 441.25 674.00 440.00
C 674.17 441.29 675.70 441.75 676.00 443.00
C 662.15 442.34 647.09 444.33 634.00 442.00 Z"/>
</g>
<g fill="None" fill-opacity="0.0" stroke="#9EADD4" stroke-opacity="1.00" stroke-width="0.3"><path d="
M 551.00 446.00 
C 556.95 448.36 567.18 447.00 574.00 447.00 C 580.82 447.00 591.44 449.24 595.00 444.00
C 591.06 448.18 580.27 446.11 574.00 446.00 C 567.73 445.89 557.27 447.53 551.00 446.00 Z"/>
</g>
<g fill="None" fill-opacity="0.0" stroke="#9EADD4" stroke-opacity="1.00" stroke-width="0.3"><path d="
M 342.00 445.00 
C 314.81 446.67 284.26 446.66 257.00 445.00
C 256.08 448.24 271.68 446.86 277.00 447.00 C 282.32 447.14 294.09 446.99 300.00 447.00 C 305.91 447.01 317.68 447.12 323.00 447.00 C 328.32 446.88 342.91 448.22 342.00 445.00 Z"/>
</g>
<g fill="None" fill-opacity="0.0" stroke="#9DADD4" stroke-opacity="1.00" stroke-width="0.3"><path d="
M 438.00 446.00 
C 412.15 445.33 385.10 447.33 360.00 445.00
C 359.07 448.28 371.77 446.86 377.00 447.00 C 382.23 447.14 391.94 447.01 398.00 447.00 C 404.06 446.99 412.74 447.18 419.00 447.00 C 425.26 446.82 432.51 447.94 438.00 446.00 Z"/>
</g>
<g fill="None" fill-opacity="0.0" stroke="#9DADD4" stroke-opacity="1.00" stroke-width="0.3"><path d="
M 450.00 446.00 
C 456.12 448.02 465.13 446.75 472.00 447.00 C 478.87 447.25 487.47 446.94 494.00 447.00 C 500.53 447.06 511.38 447.06 517.00 447.00 C 522.62 446.94 535.89 448.12 535.00 445.00
C 507.66 447.33 478.17 445.33 450.00 446.00 Z"/>
</g>
<g fill="None" fill-opacity="0.0" stroke="#939393" stroke-opacity="1.00" stroke-width="0.3"><path d="
M 156.00 446.00 
C 148.44 446.94 139.61 446.26 132.00 446.00 C 124.39 445.74 115.39 447.64 108.00 446.00
C 114.73 448.48 124.32 446.71 132.00 447.00 C 139.68 447.29 149.06 447.72 156.00 446.00 Z"/>
</g>
<g fill="None" fill-opacity="0.0" stroke="#929292" stroke-opacity="1.00" stroke-width="0.3"><path d="
M 247.00 446.00 
C 243.25 447.83 230.21 446.71 226.00 446.00
C 230.29 447.30 242.94 448.90 247.00 446.00 Z"/>
</g>
<g fill="None" fill-opacity="0.0" stroke="#12286A" stroke-opacity="1.00" stroke-width="0.3"><path d="
M 134.00 501.00 
C 133.20 497.57 132.70 494.43 134.00 491.00
C 138.28 483.56 144.40 477.31 149.00 470.00
C 144.00 470.00 139.00 470.00 134.00 470.00
C 134.28 474.18 131.07 479.00 127.00 480.00
C 126.38 476.43 121.72 474.31 123.00 470.00
C 118.00 470.00 113.00 470.00 108.00 470.00
C 114.21 481.47 130.70 493.61 120.00 508.00
C 125.33 508.00 130.67 508.00 136.00 508.00
C 134.66 505.70 134.60 503.57 134.00 501.00 Z"/>
</g>
<g fill="None" fill-opacity="0.0" stroke="#11286A" stroke-opacity="1.00" stroke-width="0.3"><path d="
M 172.00 470.00 
C 165.00 470.00 158.00 470.00 151.00 470.00
C 152.39 482.79 148.75 497.06 142.00 508.00
C 147.33 508.00 152.67 508.00 158.00 508.00
C 152.46 500.65 160.63 498.59 167.00 500.00
C 167.28 502.81 166.80 505.49 166.00 508.00
C 171.00 508.00 176.00 508.00 181.00 508.00
C 175.21 496.71 171.17 482.68 172.00 470.00
M 162.00 479.00 
C 163.66 483.49 163.47 488.45 165.00 493.00
C 155.20 495.57 160.33 483.27 162.00 479.00 Z"/>
</g>
<g fill="None" fill-opacity="0.0" stroke="#102769" stroke-opacity="1.00" stroke-width="0.3"><path d="
M 228.00 502.00 
C 226.07 494.89 226.09 483.04 228.00 476.00
C 227.07 473.38 230.20 472.34 230.00 470.00
C 224.67 470.00 219.33 470.00 214.00 470.00
C 220.90 476.63 210.47 484.34 208.00 491.00
C 204.59 485.07 194.62 476.77 201.00 470.00
C 195.67 470.00 190.33 470.00 185.00 470.00
C 189.59 481.11 189.78 496.74 185.00 508.00
C 190.33 508.00 195.67 508.00 201.00 508.00
C 198.45 503.78 197.52 499.06 198.00 494.00
C 202.21 495.23 203.20 507.56 207.92 506.92 C 212.64 506.27 213.77 495.93 216.00 493.00
C 218.24 497.26 217.18 504.11 214.00 508.00
C 219.33 508.00 224.67 508.00 230.00 508.00
C 229.13 505.91 228.59 504.19 228.00 502.00 Z"/>
</g>
<g fill="None" fill-opacity="0.0" stroke="#11286A" stroke-opacity="1.00" stroke-width="0.3"><path d="
M 263.00 470.00 
C 256.00 470.00 249.00 470.00 242.00 470.00
C 243.41 482.79 239.71 497.04 233.00 508.00
C 238.33 508.00 243.67 508.00 249.00 508.00
C 243.07 500.84 251.84 498.48 258.00 500.00
C 258.28 502.81 257.80 505.49 257.00 508.00
C 262.00 508.00 267.00 508.00 272.00 508.00
C 266.16 496.58 261.96 482.73 263.00 470.00
M 256.00 493.00 
C 245.64 495.26 252.89 484.42 252.00 479.00
C 255.67 482.24 253.91 488.63 256.00 493.00 Z"/>
</g>
<g fill="None" fill-opacity="0.0" stroke="#132A6B" stroke-opacity="1.00" stroke-width="0.3"><path d="
M 308.00 502.00 
C 306.07 494.89 306.09 483.04 308.00 476.00
C 307.07 473.38 310.20 472.34 310.00 470.00
C 304.67 470.00 299.33 470.00 294.00 470.00
C 297.01 473.54 300.30 485.97 293.01 485.99 C 285.72 486.01 289.37 474.06 291.00 470.00
C 285.67 470.00 280.33 470.00 275.00 470.00
C 279.86 480.71 279.87 497.26 275.00 508.00
C 280.33 508.00 285.67 508.00 291.00 508.00
C 288.15 502.04 286.26 489.46 297.00 493.00
C 297.02 498.25 297.66 503.94 294.00 508.00
C 299.33 508.00 304.67 508.00 310.00 508.00
C 309.13 505.91 308.59 504.19 308.00 502.00 Z"/>
</g>
<g fill="None" fill-opacity="0.0" stroke="#11286A" stroke-opacity="1.00" stroke-width="0.3"><path d="
M 344.00 470.00 
C 337.00 470.00 330.00 470.00 323.00 470.00
C 323.92 482.75 320.29 496.68 314.00 508.00
C 319.00 508.00 324.00 508.00 329.00 508.00
C 329.09 505.18 327.33 502.94 328.00 500.00
C 334.11 498.50 343.00 500.84 337.00 508.00
C 342.33 508.00 347.67 508.00 353.00 508.00
C 346.76 496.75 342.63 482.79 344.00 470.00
M 336.00 493.00 
C 325.75 495.32 333.47 484.32 333.00 479.00
C 335.43 482.84 335.91 488.17 336.00 493.00 Z"/>
</g>
<g fill="None" fill-opacity="0.0" stroke="#12286A" stroke-opacity="1.00" stroke-width="0.3"><path d="
M 374.00 477.00 
C 375.70 483.87 375.68 494.20 374.00 501.00
C 374.60 503.74 372.00 505.46 372.00 508.00
C 376.67 508.00 381.33 508.00 386.00 508.00
C 384.64 503.82 384.76 497.58 385.00 494.00
C 388.25 497.58 389.43 502.95 389.00 508.00
C 394.33 508.00 399.67 508.00 405.00 508.00
C 402.91 502.71 397.14 498.85 396.00 493.00
C 401.00 493.70 402.11 489.61 403.00 486.00
C 403.34 483.22 403.60 478.73 403.00 476.00
C 397.96 464.85 381.89 472.05 372.00 470.00
C 372.85 472.36 373.40 474.58 374.00 477.00
M 393.00 478.00 
C 395.80 487.65 382.11 486.92 384.00 478.00
C 387.00 478.00 390.00 478.00 393.00 478.00 Z"/>
</g>
<g fill="None" fill-opacity="0.0" stroke="#132A6B" stroke-opacity="1.00" stroke-width="0.3"><path d="
M 411.00 477.00 
C 412.70 483.87 412.68 494.20 411.00 501.00
C 411.60 503.74 409.00 505.46 409.00 508.00
C 414.33 508.00 419.67 508.00 425.00 508.00
C 420.15 497.29 420.13 480.74 425.00 470.00
C 419.67 470.00 414.33 470.00 409.00 470.00
C 409.85 472.36 410.40 474.58 411.00 477.00 Z"/>
</g>
<g fill="None" fill-opacity="0.0" stroke="#102769" stroke-opacity="1.00" stroke-width="0.3"><path d="
M 428.00 508.00 
C 436.51 507.10 445.46 509.24 453.92 507.92 C 462.39 506.61 459.68 495.13 460.00 489.00 C 460.32 482.87 461.70 470.81 453.00 470.00 C 444.30 469.19 436.61 470.61 428.00 470.00
C 432.80 481.14 432.46 496.83 428.00 508.00
M 449.00 480.00 
C 451.07 482.93 451.06 495.15 449.00 498.00
C 447.03 500.74 444.23 499.99 441.00 500.00
C 441.00 492.67 441.00 485.33 441.00 478.00
C 443.48 478.74 448.82 476.19 449.00 480.00 Z"/>
</g>
<g fill="None" fill-opacity="0.0" stroke="#12296A" stroke-opacity="1.00" stroke-width="0.3"><path d="
M 493.00 470.00 
C 482.33 470.00 471.67 470.00 461.00 470.00
C 465.77 481.10 465.78 496.88 461.00 508.00
C 471.67 508.00 482.33 508.00 493.00 508.00
C 493.00 504.33 493.00 500.67 493.00 497.00
C 487.48 500.56 471.08 504.13 474.00 493.00
C 480.51 494.09 486.43 492.95 484.00 485.00
C 478.54 487.83 471.52 485.16 474.00 478.00
C 480.45 478.39 487.84 476.49 493.00 481.00
C 493.00 477.33 493.00 473.67 493.00 470.00 Z"/>
</g>
<g fill="None" fill-opacity="0.0" stroke="#102769" stroke-opacity="1.00" stroke-width="0.3"><path d="
M 520.00 493.00 
C 528.79 493.44 531.85 476.83 525.08 471.92 C 518.31 467.02 504.12 471.62 496.00 470.00
C 500.25 481.15 501.11 496.80 496.00 508.00
C 501.00 508.00 506.00 508.00 511.00 508.00
C 508.48 504.14 508.07 497.88 510.00 494.00
C 511.93 498.50 514.70 502.76 514.00 508.00
C 519.33 508.00 524.67 508.00 530.00 508.00
C 526.13 503.33 522.51 498.51 520.00 493.00
M 509.00 485.00 
C 506.28 480.00 512.84 474.38 517.22 478.78 C 521.61 483.18 512.86 487.19 509.00 485.00 Z"/>
</g>
<g fill="None" fill-opacity="0.0" stroke="#132A6B" stroke-opacity="1.00" stroke-width="0.3"><path d="
M 561.00 470.00 
C 549.29 472.38 534.90 463.73 532.00 480.00 C 529.10 496.27 551.05 488.37 551.00 500.00
C 544.89 499.50 537.74 501.74 533.00 497.00
C 533.00 500.73 533.32 504.62 532.00 508.00
C 539.58 505.88 550.30 511.16 557.25 507.25 C 564.20 503.34 561.96 495.61 559.92 489.08 C 557.87 482.55 542.94 488.28 542.01 482.01 C 541.07 475.74 557.07 476.76 560.00 481.00
C 560.00 477.27 559.68 473.38 561.00 470.00 Z"/>
</g>
<g fill="None" fill-opacity="0.0" stroke="#11286A" stroke-opacity="1.00" stroke-width="0.3"><path d="
M 608.00 502.00 
C 607.33 499.52 606.44 496.14 607.00 493.00
C 600.62 492.65 593.72 491.75 597.00 500.00
C 593.77 499.99 590.97 500.74 589.00 498.00
C 587.00 495.23 586.38 479.73 590.00 478.00
C 595.70 476.36 598.88 479.93 596.00 485.00
C 599.67 485.00 603.33 485.00 607.00 485.00
C 606.41 479.55 607.81 474.52 610.00 470.00
C 602.92 472.00 583.77 465.74 579.77 473.77 C 575.78 481.80 576.04 496.26 579.70 504.30 C 583.37 512.33 602.92 505.91 610.00 508.00
C 609.13 505.91 608.59 504.19 608.00 502.00 Z"/>
</g>
<g fill="None" fill-opacity="0.0" stroke="#12296A" stroke-opacity="1.00" stroke-width="0.3"><path d="
M 616.00 477.00 
C 617.70 483.87 617.68 494.20 616.00 501.00
C 616.60 503.74 614.00 505.46 614.00 508.00
C 624.00 508.00 634.00 508.00 644.00 508.00
C 644.00 504.33 644.00 500.67 644.00 497.00
C 639.53 501.50 632.84 499.65 627.00 500.00
C 628.34 490.14 623.94 478.36 630.00 470.00
C 624.67 470.00 619.33 470.00 614.00 470.00
C 614.85 472.36 615.40 474.58 616.00 477.00 Z"/>
</g>
<g fill="None" fill-opacity="0.0" stroke="#11286A" stroke-opacity="1.00" stroke-width="0.3"><path d="
M 646.00 477.00 
C 647.74 484.02 645.65 492.49 647.00 500.00
C 650.69 511.67 672.32 511.65 676.00 500.00
C 677.35 492.49 675.28 483.96 677.00 477.00
C 676.40 474.26 679.00 472.54 679.00 470.00
C 673.67 470.00 668.33 470.00 663.00 470.00
C 669.19 477.74 663.92 482.03 666.00 492.00 C 668.08 501.97 654.95 501.99 657.00 492.00 C 659.05 482.01 654.03 477.88 660.00 470.00
C 654.67 470.00 649.33 470.00 644.00 470.00
C 644.85 472.36 645.40 474.58 646.00 477.00 Z"/>
</g>
<g fill="None" fill-opacity="0.0" stroke="#102769" stroke-opacity="1.00" stroke-width="0.3"><path d="
M 711.00 489.00 
C 722.69 469.58 695.51 467.68 682.00 470.00
C 686.67 481.11 686.67 496.90 682.00 508.00
C 690.67 507.16 701.88 509.59 709.92 506.92 C 717.96 504.25 717.66 492.45 711.00 489.00
M 695.00 485.00 
C 692.12 479.43 699.28 474.91 702.89 479.11 C 706.50 483.30 698.61 486.71 695.00 485.00
M 695.00 500.00 
C 691.94 494.18 700.39 489.19 704.74 494.26 C 709.10 499.32 699.11 501.64 695.00 500.00 Z"/>
</g>
<g fill="None" fill-opacity="0.0" stroke="#929BBA" stroke-opacity="1.00" stroke-width="0.3"><path d="
M 228.00 502.00 
C 226.92 494.42 226.92 483.58 228.00 476.00
C 226.09 483.04 226.07 494.89 228.00 502.00 Z"/>
</g>
<g fill="None" fill-opacity="0.0" stroke="#9EA8C2" stroke-opacity="1.00" stroke-width="0.3"><path d="
M 308.00 502.00 
C 306.92 494.42 306.92 483.58 308.00 476.00
C 306.09 483.04 306.07 494.89 308.00 502.00 Z"/>
</g>
<g fill="None" fill-opacity="0.0" stroke="#7582A8" stroke-opacity="1.00" stroke-width="0.3"><path d="
M 403.00 486.00 
C 403.83 482.64 404.28 479.47 403.00 476.00
C 403.60 478.73 403.34 483.22 403.00 486.00 Z"/>
</g>
<g fill="None" fill-opacity="0.0" stroke="#6C7AA3" stroke-opacity="1.00" stroke-width="0.3"><path d="
M 374.00 501.00 
C 375.68 494.20 375.70 483.87 374.00 477.00
C 374.90 484.22 374.90 493.78 374.00 501.00 Z"/>
</g>
<g fill="None" fill-opacity="0.0" stroke="#6E7BA3" stroke-opacity="1.00" stroke-width="0.3"><path d="
M 411.00 501.00 
C 412.68 494.20 412.70 483.87 411.00 477.00
C 411.90 484.22 411.90 493.78 411.00 501.00 Z"/>
</g>
<g fill="None" fill-opacity="0.0" stroke="#7B88AB" stroke-opacity="1.00" stroke-width="0.3"><path d="
M 616.00 501.00 
C 617.68 494.20 617.70 483.87 616.00 477.00
C 616.90 484.22 616.90 493.78 616.00 501.00 Z"/>
</g>
<g fill="None" fill-opacity="0.0" stroke="#8893B3" stroke-opacity="1.00" stroke-width="0.3"><path d="
M 647.00 500.00 
C 645.65 492.49 647.74 484.02 646.00 477.00
C 646.94 484.58 644.81 493.09 647.00 500.00 Z"/>
</g>
<g fill="None" fill-opacity="0.0" stroke="#7380A7" stroke-opacity="1.00" stroke-width="0.3"><path d="
M 676.00 500.00 
C 678.17 493.14 676.06 484.58 677.00 477.00
C 675.28 483.96 677.35 492.49 676.00 500.00 Z"/>
</g>
<g fill="None" fill-opacity="0.0" stroke="#F8F9FA" stroke-opacity="1.00" stroke-width="0.3"><path d="
M 393.00 478.00 
C 390.00 478.00 387.00 478.00 384.00 478.00
C 382.11 486.92 395.80 487.65 393.00 478.00 Z"/>
</g>
<g fill="None" fill-opacity="0.0" stroke="#FAFBFC" stroke-opacity="1.00" stroke-width="0.3"><path d="
M 449.00 498.00 
C 450.11 495.76 450.09 482.25 449.00 480.00
C 448.82 476.19 443.48 478.74 441.00 478.00
C 441.00 485.33 441.00 492.67 441.00 500.00
C 444.23 499.99 447.03 500.74 449.00 498.00 Z"/>
</g>
<g fill="None" fill-opacity="0.0" stroke="#F0F1F5" stroke-opacity="1.00" stroke-width="0.3"><path d="
M 509.00 485.00 
C 512.86 487.19 521.61 483.18 517.22 478.78 C 512.84 474.38 506.28 480.00 509.00 485.00 Z"/>
</g>
<g fill="None" fill-opacity="0.0" stroke="#8B97B6" stroke-opacity="1.00" stroke-width="0.3"><path d="
M 589.00 498.00 
C 587.89 495.75 587.97 479.41 590.00 478.00
C 586.38 479.73 587.00 495.23 589.00 498.00 Z"/>
</g>
<g fill="None" fill-opacity="0.0" stroke="#F1F2F6" stroke-opacity="1.00" stroke-width="0.3"><path d="
M 695.00 485.00 
C 698.61 486.71 706.50 483.30 702.89 479.11 C 699.28 474.91 692.12 479.43 695.00 485.00 Z"/>
</g>
<g fill="None" fill-opacity="0.0" stroke="#DFE3EB" stroke-opacity="1.00" stroke-width="0.3"><path d="
M 162.00 479.00 
C 160.33 483.27 155.20 495.57 165.00 493.00
C 163.47 488.45 163.66 483.49 162.00 479.00 Z"/>
</g>
<g fill="None" fill-opacity="0.0" stroke="#E4E6EE" stroke-opacity="1.00" stroke-width="0.3"><path d="
M 256.00 493.00 
C 253.91 488.63 255.67 482.24 252.00 479.00
C 252.89 484.42 245.64 495.26 256.00 493.00 Z"/>
</g>
<g fill="None" fill-opacity="0.0" stroke="#DFE2EB" stroke-opacity="1.00" stroke-width="0.3"><path d="
M 336.00 493.00 
C 335.91 488.17 335.43 482.84 333.00 479.00
C 333.47 484.32 325.75 495.32 336.00 493.00 Z"/>
</g>
<g fill="None" fill-opacity="0.0" stroke="#8691B3" stroke-opacity="1.00" stroke-width="0.3"><path d="
M 449.00 498.00 
C 451.06 495.15 451.07 482.93 449.00 480.00
C 450.09 482.25 450.11 495.76 449.00 498.00 Z"/>
</g>
<g fill="None" fill-opacity="0.0" stroke="#828EB1" stroke-opacity="1.00" stroke-width="0.3"><path d="
M 134.00 501.00 
C 133.69 498.21 133.37 493.73 134.00 491.00
C 132.70 494.43 133.20 497.57 134.00 501.00 Z"/>
</g>
<g fill="None" fill-opacity="0.0" stroke="#7E8BB0" stroke-opacity="1.00" stroke-width="0.3"><path d="
M 608.00 502.00 
C 607.65 499.56 609.17 494.52 607.00 493.00
C 606.44 496.14 607.33 499.52 608.00 502.00 Z"/>
</g>
<g fill="None" fill-opacity="0.0" stroke="#F0F1F5" stroke-opacity="1.00" stroke-width="0.3"><path d="
M 695.00 500.00 
C 699.11 501.64 709.10 499.32 704.74 494.26 C 700.39 489.19 691.94 494.18 695.00 500.00 Z"/>
</g>
<g fill="#FEFEFE" fill-opacity="1.00" stroke="None">
<path d="
M 0.00 749.00 
L 749.00 749.00
L 749.00 0.00
L 0.00 0.00
L 0.00 749.00
M 342.00 445.00 
C 342.91 448.22 328.32 446.88 323.00 447.00 C 317.68 447.12 305.91 447.01 300.00 447.00 C 294.09 446.99 282.32 447.14 277.00 447.00 C 271.68 446.86 256.08 448.24 257.00 445.00
C 258.43 439.97 266.11 438.00 267.77 431.77 C 269.44 425.54 272.00 419.16 272.00 412.00
C 272.00 405.90 272.64 399.02 272.00 393.00 C 271.36 386.98 273.71 379.73 272.00 374.00
C 266.57 362.40 253.22 354.75 245.75 344.25 C 238.28 333.75 227.40 324.93 219.25 314.75 C 211.09 304.58 200.97 295.32 193.00 285.00
C 219.67 285.00 246.33 285.00 273.00 285.00
C 263.57 303.39 289.63 314.94 298.00 329.00
C 309.94 317.68 333.03 303.81 326.00 285.00
C 352.33 285.00 378.67 285.00 405.00 285.00
C 397.97 294.73 389.62 303.06 381.25 312.25 C 372.88 321.43 366.20 330.03 357.25 339.25 C 348.29 348.46 343.29 356.78 333.23 366.23 C 323.17 375.68 325.93 396.18 326.00 410.00 C 326.07 423.82 330.66 436.54 342.00 445.00
M 525.00 315.00 
C 526.93 325.01 526.78 339.06 525.00 349.00
C 523.56 370.13 504.68 384.01 484.00 383.00
C 498.70 405.02 513.97 427.89 535.00 445.00
C 535.89 448.12 522.62 446.94 517.00 447.00 C 511.38 447.06 500.53 447.06 494.00 447.00 C 487.47 446.94 478.87 447.25 472.00 447.00 C 465.13 446.75 456.12 448.02 450.00 446.00
C 454.50 441.31 452.87 433.28 452.22 427.78 C 451.58 422.28 447.92 415.56 446.08 410.92 C 444.23 406.29 439.35 399.81 437.70 396.30 C 436.04 392.80 429.03 383.20 428.00 385.00
C 429.83 396.76 429.00 410.49 429.00 423.00
C 429.00 431.80 431.32 439.92 438.00 446.00
C 432.51 447.94 425.26 446.82 419.00 447.00 C 412.74 447.18 404.06 446.99 398.00 447.00 C 391.94 447.01 382.23 447.14 377.00 447.00 C 371.77 446.86 359.07 448.28 360.00 445.00
C 361.49 439.77 368.99 438.17 370.77 431.77 C 372.56 425.38 375.00 418.33 375.00 411.00
C 375.00 398.49 373.70 383.24 375.00 371.00 C 376.30 358.76 371.06 342.57 376.00 332.00
C 380.01 323.42 388.06 320.57 393.25 312.25 C 398.44 303.93 405.60 301.59 411.25 292.25 C 416.90 282.90 431.06 284.85 442.00 285.00 C 452.94 285.15 468.04 285.26 479.00 285.00 C 489.96 284.74 501.63 285.97 510.08 291.92 C 518.54 297.87 524.19 304.85 525.00 315.00
M 663.00 322.00 
C 663.00 328.67 663.00 335.33 663.00 342.00
C 656.00 341.81 647.89 342.26 641.00 342.00 C 634.11 341.74 625.48 342.50 619.00 342.00 C 612.52 341.50 601.37 343.92 600.00 340.00
C 601.88 335.37 609.62 337.96 608.99 330.99 C 608.36 324.03 610.85 319.83 603.00 318.00
C 596.24 317.25 588.80 317.86 582.00 318.00
C 561.84 318.40 563.98 334.72 565.00 351.00 C 566.02 367.28 563.44 385.34 565.00 401.00 C 566.56 416.66 590.73 414.40 603.00 413.00 C 615.27 411.60 608.82 384.82 600.00 380.00
C 619.00 380.00 638.00 380.00 657.00 380.00
C 652.36 390.50 638.98 401.00 627.00 398.00 C 615.02 395.00 619.91 408.66 621.00 413.00
C 610.21 413.37 607.24 427.97 607.00 437.00
C 601.67 435.83 595.45 438.00 595.00 444.00
C 591.44 449.24 580.82 447.00 574.00 447.00 C 567.18 447.00 556.95 448.36 551.00 446.00
C 536.95 440.42 526.88 423.35 516.75 413.25 C 506.62 403.14 514.67 396.06 512.00 384.00
C 526.51 377.25 535.06 362.47 535.00 346.00 C 534.94 329.53 538.45 306.11 525.00 294.00
C 546.01 279.59 571.26 286.06 597.00 285.00 C 622.74 283.94 652.86 285.79 679.00 285.00
C 668.42 294.71 661.71 307.38 663.00 322.00
M 73.00 341.00 
C 66.06 342.72 56.68 342.29 49.00 342.00 C 41.32 341.71 31.73 343.48 25.00 341.00
C 14.53 337.13 26.13 319.14 28.93 310.93 C 31.73 302.72 35.63 284.39 49.00 286.00 C 62.37 287.62 80.38 283.70 94.00 286.00 C 107.62 288.30 94.62 305.66 91.69 314.69 C 88.77 323.73 83.93 338.29 73.00 341.00
M 185.00 286.00 
C 191.03 298.20 203.39 307.51 212.00 318.00
C 206.63 326.52 209.12 337.50 196.97 340.97 C 184.83 344.45 172.83 339.49 159.00 342.00 C 145.17 344.51 139.65 336.39 145.92 324.92 C 152.20 313.46 151.68 308.06 156.77 296.77 C 161.86 285.48 172.93 284.80 185.00 286.00
M 139.00 338.00 
C 146.86 341.20 137.68 353.16 136.08 359.08 C 134.47 364.99 129.30 372.83 127.22 380.22 C 125.15 387.61 119.16 393.47 110.00 393.00 C 100.84 392.53 89.39 391.78 80.00 393.00 C 70.61 394.22 58.43 391.93 62.98 381.98 C 67.52 372.03 67.30 368.10 71.32 360.32 C 75.34 352.54 74.31 345.01 81.25 340.25 C 88.19 335.49 100.80 337.38 109.00 338.00 C 117.20 338.62 131.42 334.91 139.00 338.00
M 230.00 338.00 
C 234.00 339.48 239.66 349.33 243.25 352.75 C 246.84 356.17 256.08 363.14 253.07 369.07 C 250.06 375.01 249.37 381.90 244.25 388.25 C 239.13 394.59 229.88 392.36 221.00 393.00 C 212.12 393.64 203.30 391.38 193.00 393.00 C 182.70 394.62 181.87 384.96 185.92 377.92 C 189.98 370.88 190.17 363.79 193.77 357.77 C 197.37 351.75 196.56 341.94 203.75 339.75 C 210.94 337.55 222.72 335.31 230.00 338.00
M 671.00 388.00 
C 661.34 389.75 651.40 398.81 642.00 406.00
C 642.19 400.68 648.49 397.30 653.70 394.70 C 658.90 392.09 663.23 382.73 671.00 388.00
M 156.00 446.00 
C 149.06 447.72 139.68 447.29 132.00 447.00 C 124.32 446.71 114.73 448.48 108.00 446.00
C 97.59 442.16 109.18 424.17 111.98 415.98 C 114.77 407.78 118.59 389.29 132.00 391.00 C 145.42 392.71 163.33 388.66 177.00 391.00 C 190.67 393.34 177.68 410.69 174.69 419.69 C 171.71 428.70 166.93 443.29 156.00 446.00
M 247.00 446.00 
C 242.94 448.90 230.29 447.30 226.00 446.00
C 215.80 442.90 224.04 430.74 226.92 422.92 C 229.81 415.10 232.59 406.21 236.77 397.77 C 240.95 389.33 256.33 390.59 265.00 391.00
C 265.77 401.94 264.52 414.11 262.07 424.07 C 259.63 434.03 251.13 437.85 247.00 446.00
M 661.00 400.00 
C 663.78 397.23 666.60 395.91 670.00 398.00
C 672.65 395.47 667.90 393.87 669.00 391.00
C 673.03 388.33 676.79 399.29 672.74 399.74 C 668.70 400.19 665.24 400.82 661.00 400.00
M 657.00 401.00 
C 658.88 401.41 661.30 401.36 664.00 402.00
C 669.30 403.25 681.52 402.36 671.00 407.00
C 673.84 407.59 677.98 405.78 680.00 408.00
C 673.13 407.29 667.51 411.23 661.00 412.00
C 665.59 414.91 673.48 411.08 678.00 414.00
C 671.07 414.53 664.19 415.46 657.00 415.00
C 661.26 417.89 668.81 414.09 673.00 417.00
C 669.73 419.83 663.20 416.14 660.00 419.00
C 661.79 421.69 670.51 418.31 670.00 421.00
C 669.70 421.78 669.16 422.15 669.00 423.00
C 668.91 423.48 669.00 424.00 669.00 424.00
C 668.86 424.80 668.15 425.16 668.00 426.00
C 667.91 426.48 668.00 427.00 668.00 427.00
C 666.36 429.54 668.98 428.10 669.00 429.00
C 672.46 420.64 678.10 413.09 689.00 415.00
C 689.08 416.71 690.24 417.90 691.00 420.00
C 688.25 418.17 685.09 417.84 682.00 417.00
C 682.96 421.43 685.03 425.54 686.00 430.00
C 682.89 430.08 683.44 425.89 682.00 424.00
C 676.16 426.39 678.08 432.78 680.00 437.00
C 672.36 432.87 677.57 424.66 681.00 420.00
C 672.88 422.72 669.84 436.96 680.23 440.77 C 690.63 444.58 699.71 433.25 696.00 424.00
C 699.74 429.84 698.42 437.97 694.00 443.00
C 698.83 443.65 704.99 441.69 709.00 444.00
C 674.00 448.59 636.84 444.72 601.00 446.00
C 603.30 440.34 613.97 443.24 619.00 444.00
C 615.23 440.50 611.65 433.31 615.00 428.00
C 611.42 442.78 634.82 445.95 637.00 432.00
C 631.92 431.17 627.56 426.40 622.00 426.00
C 622.00 427.00 622.00 428.00 622.00 429.00
C 621.34 430.35 622.50 432.58 622.00 434.00
C 620.84 432.08 618.76 435.32 618.00 433.00
C 616.20 429.02 620.81 423.95 618.00 420.00
C 624.58 419.16 633.37 433.36 637.00 424.00
C 634.09 423.40 631.90 420.92 629.00 420.00
C 631.76 418.54 635.65 420.64 631.00 417.00
C 634.73 416.26 638.95 422.65 641.00 417.00
C 636.27 413.49 628.02 413.08 626.00 407.00
C 630.89 407.54 636.71 411.78 641.00 410.00
C 636.00 408.42 631.17 406.19 626.00 405.00
C 634.12 401.21 643.48 411.79 651.00 406.00
C 653.24 405.92 656.07 406.77 657.00 409.00
C 661.74 406.64 655.49 403.29 652.00 404.00
C 651.46 401.71 657.09 397.20 657.00 401.00
M 690.00 411.00 
C 686.52 406.16 680.23 403.20 677.00 399.00
C 683.17 398.97 687.87 406.03 690.00 411.00
M 134.00 491.00 
C 133.37 493.73 133.69 498.21 134.00 501.00
C 134.60 503.57 134.66 505.70 136.00 508.00
C 130.67 508.00 125.33 508.00 120.00 508.00
C 130.70 493.61 114.21 481.47 108.00 470.00
C 113.00 470.00 118.00 470.00 123.00 470.00
C 121.72 474.31 126.38 476.43 127.00 480.00
C 131.07 479.00 134.28 474.18 134.00 470.00
C 139.00 470.00 144.00 470.00 149.00 470.00
C 144.40 477.31 138.28 483.56 134.00 491.00
M 172.00 470.00 
C 171.17 482.68 175.21 496.71 181.00 508.00
C 176.00 508.00 171.00 508.00 166.00 508.00
C 166.80 505.49 167.28 502.81 167.00 500.00
C 160.63 498.59 152.46 500.65 158.00 508.00
C 152.67 508.00 147.33 508.00 142.00 508.00
C 148.75 497.06 152.39 482.79 151.00 470.00
C 158.00 470.00 165.00 470.00 172.00 470.00
M 228.00 476.00 
C 226.92 483.58 226.92 494.42 228.00 502.00
C 228.59 504.19 229.13 505.91 230.00 508.00
C 224.67 508.00 219.33 508.00 214.00 508.00
C 217.18 504.11 218.24 497.26 216.00 493.00
C 213.77 495.93 212.64 506.27 207.92 506.92 C 203.20 507.56 202.21 495.23 198.00 494.00
C 197.52 499.06 198.45 503.78 201.00 508.00
C 195.67 508.00 190.33 508.00 185.00 508.00
C 189.78 496.74 189.59 481.11 185.00 470.00
C 190.33 470.00 195.67 470.00 201.00 470.00
C 194.62 476.77 204.59 485.07 208.00 491.00
C 210.47 484.34 220.90 476.63 214.00 470.00
C 219.33 470.00 224.67 470.00 230.00 470.00
C 230.20 472.34 227.07 473.38 228.00 476.00
M 263.00 470.00 
C 261.96 482.73 266.16 496.58 272.00 508.00
C 267.00 508.00 262.00 508.00 257.00 508.00
C 257.80 505.49 258.28 502.81 258.00 500.00
C 251.84 498.48 243.07 500.84 249.00 508.00
C 243.67 508.00 238.33 508.00 233.00 508.00
C 239.71 497.04 243.41 482.79 242.00 470.00
C 249.00 470.00 256.00 470.00 263.00 470.00
M 308.00 476.00 
C 306.92 483.58 306.92 494.42 308.00 502.00
C 308.59 504.19 309.13 505.91 310.00 508.00
C 304.67 508.00 299.33 508.00 294.00 508.00
C 297.66 503.94 297.02 498.25 297.00 493.00
C 286.26 489.46 288.15 502.04 291.00 508.00
C 285.67 508.00 280.33 508.00 275.00 508.00
C 279.87 497.26 279.86 480.71 275.00 470.00
C 280.33 470.00 285.67 470.00 291.00 470.00
C 289.37 474.06 285.72 486.01 293.01 485.99 C 300.30 485.97 297.01 473.54 294.00 470.00
C 299.33 470.00 304.67 470.00 310.00 470.00
C 310.20 472.34 307.07 473.38 308.00 476.00
M 344.00 470.00 
C 342.63 482.79 346.76 496.75 353.00 508.00
C 347.67 508.00 342.33 508.00 337.00 508.00
C 343.00 500.84 334.11 498.50 328.00 500.00
C 327.33 502.94 329.09 505.18 329.00 508.00
C 324.00 508.00 319.00 508.00 314.00 508.00
C 320.29 496.68 323.92 482.75 323.00 470.00
C 330.00 470.00 337.00 470.00 344.00 470.00
M 403.00 476.00 
C 404.28 479.47 403.83 482.64 403.00 486.00
C 402.11 489.61 401.00 493.70 396.00 493.00
C 397.14 498.85 402.91 502.71 405.00 508.00
C 399.67 508.00 394.33 508.00 389.00 508.00
C 389.43 502.95 388.25 497.58 385.00 494.00
C 384.76 497.58 384.64 503.82 386.00 508.00
C 381.33 508.00 376.67 508.00 372.00 508.00
C 372.00 505.46 374.60 503.74 374.00 501.00
C 374.90 493.78 374.90 484.22 374.00 477.00
C 373.40 474.58 372.85 472.36 372.00 470.00
C 381.89 472.05 397.96 464.85 403.00 476.00
M 411.00 501.00 
C 411.90 493.78 411.90 484.22 411.00 477.00
C 410.40 474.58 409.85 472.36 409.00 470.00
C 414.33 470.00 419.67 470.00 425.00 470.00
C 420.13 480.74 420.15 497.29 425.00 508.00
C 419.67 508.00 414.33 508.00 409.00 508.00
C 409.00 505.46 411.60 503.74 411.00 501.00
M 428.00 508.00 
C 432.46 496.83 432.80 481.14 428.00 470.00
C 436.61 470.61 444.30 469.19 453.00 470.00 C 461.70 470.81 460.32 482.87 460.00 489.00 C 459.68 495.13 462.39 506.61 453.92 507.92 C 445.46 509.24 436.51 507.10 428.00 508.00
M 493.00 470.00 
C 493.00 473.67 493.00 477.33 493.00 481.00
C 487.84 476.49 480.45 478.39 474.00 478.00
C 471.52 485.16 478.54 487.83 484.00 485.00
C 486.43 492.95 480.51 494.09 474.00 493.00
C 471.08 504.13 487.48 500.56 493.00 497.00
C 493.00 500.67 493.00 504.33 493.00 508.00
C 482.33 508.00 471.67 508.00 461.00 508.00
C 465.78 496.88 465.77 481.10 461.00 470.00
C 471.67 470.00 482.33 470.00 493.00 470.00
M 520.00 493.00 
C 522.51 498.51 526.13 503.33 530.00 508.00
C 524.67 508.00 519.33 508.00 514.00 508.00
C 514.70 502.76 511.93 498.50 510.00 494.00
C 508.07 497.88 508.48 504.14 511.00 508.00
C 506.00 508.00 501.00 508.00 496.00 508.00
C 501.11 496.80 500.25 481.15 496.00 470.00
C 504.12 471.62 518.31 467.02 525.08 471.92 C 531.85 476.83 528.79 493.44 520.00 493.00
M 561.00 470.00 
C 559.68 473.38 560.00 477.27 560.00 481.00
C 557.07 476.76 541.07 475.74 542.01 482.01 C 542.94 488.28 557.87 482.55 559.92 489.08 C 561.96 495.61 564.20 503.34 557.25 507.25 C 550.30 511.16 539.58 505.88 532.00 508.00
C 533.32 504.62 533.00 500.73 533.00 497.00
C 537.74 501.74 544.89 499.50 551.00 500.00
C 551.05 488.37 529.10 496.27 532.00 480.00 C 534.90 463.73 549.29 472.38 561.00 470.00
M 590.00 478.00 
C 587.97 479.41 587.89 495.75 589.00 498.00
C 590.97 500.74 593.77 499.99 597.00 500.00
C 593.72 491.75 600.62 492.65 607.00 493.00
C 609.17 494.52 607.65 499.56 608.00 502.00
C 608.59 504.19 609.13 505.91 610.00 508.00
C 602.92 505.91 583.37 512.33 579.70 504.30 C 576.04 496.26 575.78 481.80 579.77 473.77 C 583.77 465.74 602.92 472.00 610.00 470.00
C 607.81 474.52 606.41 479.55 607.00 485.00
C 603.33 485.00 599.67 485.00 596.00 485.00
C 598.88 479.93 595.70 476.36 590.00 478.00
M 616.00 501.00 
C 616.90 493.78 616.90 484.22 616.00 477.00
C 615.40 474.58 614.85 472.36 614.00 470.00
C 619.33 470.00 624.67 470.00 630.00 470.00
C 623.94 478.36 628.34 490.14 627.00 500.00
C 632.84 499.65 639.53 501.50 644.00 497.00
C 644.00 500.67 644.00 504.33 644.00 508.00
C 634.00 508.00 624.00 508.00 614.00 508.00
C 614.00 505.46 616.60 503.74 616.00 501.00
M 677.00 477.00 
C 676.06 484.58 678.17 493.14 676.00 500.00
C 672.32 511.65 650.69 511.67 647.00 500.00
C 644.81 493.09 646.94 484.58 646.00 477.00
C 645.40 474.58 644.85 472.36 644.00 470.00
C 649.33 470.00 654.67 470.00 660.00 470.00
C 654.03 477.88 659.05 482.01 657.00 492.00 C 654.95 501.99 668.08 501.97 666.00 492.00 C 663.92 482.03 669.19 477.74 663.00 470.00
C 668.33 470.00 673.67 470.00 679.00 470.00
C 679.00 472.54 676.40 474.26 677.00 477.00
M 711.00 489.00 
C 717.66 492.45 717.96 504.25 709.92 506.92 C 701.88 509.59 690.67 507.16 682.00 508.00
C 686.67 496.90 686.67 481.11 682.00 470.00
C 695.51 467.68 722.69 469.58 711.00 489.00 Z"/>
</g>
<g fill="#1E439C" fill-opacity="1.00" stroke="None">
<path d="
M 272.00 374.00 
C 276.29 383.18 272.93 402.41 272.00 412.00
C 272.00 419.16 269.44 425.54 267.77 431.77 C 266.11 438.00 258.43 439.97 257.00 445.00
C 284.26 446.66 314.81 446.67 342.00 445.00
C 330.66 436.54 326.07 423.82 326.00 410.00 C 325.93 396.18 323.17 375.68 333.23 366.23 C 343.29 356.78 348.29 348.46 357.25 339.25 C 366.20 330.03 372.88 321.43 381.25 312.25 C 389.62 303.06 397.97 294.73 405.00 285.00
C 378.67 285.00 352.33 285.00 326.00 285.00
C 333.03 303.81 309.94 317.68 298.00 329.00
C 289.63 314.94 263.57 303.39 273.00 285.00
C 246.33 285.00 219.67 285.00 193.00 285.00
C 200.97 295.32 211.09 304.58 219.25 314.75 C 227.40 324.93 238.28 333.75 245.75 344.25 C 253.22 354.75 266.57 362.40 272.00 374.00 Z"/>
</g>
<g fill="#1E439C" fill-opacity="1.00" stroke="None">
<path d="
M 376.00 332.00 
C 372.42 343.94 377.24 359.47 376.00 372.00 C 374.76 384.53 376.16 399.06 375.00 411.00
C 375.00 418.33 372.56 425.38 370.77 431.77 C 368.99 438.17 361.49 439.77 360.00 445.00
C 385.10 447.33 412.15 445.33 438.00 446.00
C 431.32 439.92 429.00 431.80 429.00 423.00
C 428.54 418.20 426.54 410.43 428.00 405.00 C 429.46 399.57 425.25 389.79 428.00 385.00
C 429.03 383.20 436.04 392.80 437.70 396.30 C 439.35 399.81 444.23 406.29 446.08 410.92 C 447.92 415.56 451.58 422.28 452.22 427.78 C 452.87 433.28 454.50 441.31 450.00 446.00
C 478.17 445.33 507.66 447.33 535.00 445.00
C 513.97 427.89 498.70 405.02 484.00 383.00
C 504.68 384.01 523.56 370.13 525.00 349.00
C 525.74 338.08 525.87 325.91 525.00 315.00
C 524.19 304.85 518.54 297.87 510.08 291.92 C 501.63 285.97 489.96 284.74 479.00 285.00 C 468.04 285.26 452.94 285.15 442.00 285.00 C 431.06 284.85 416.90 282.90 411.25 292.25 C 405.60 301.59 398.44 303.93 393.25 312.25 C 388.06 320.57 380.01 323.42 376.00 332.00
M 461.00 348.00 
C 450.82 349.82 438.91 348.72 428.00 349.00
C 428.00 340.67 428.00 332.33 428.00 324.00
C 427.16 321.35 425.96 319.11 424.00 317.00
C 437.01 318.61 456.14 313.87 467.69 319.31 C 479.25 324.74 474.08 349.67 461.00 348.00 Z"/>
</g>
<g fill="#1F449C" fill-opacity="1.00" stroke="None">
<path d="
M 551.00 446.00 
C 557.27 447.53 567.73 445.89 574.00 446.00 C 580.27 446.11 591.06 448.18 595.00 444.00
C 595.45 438.00 601.67 435.83 607.00 437.00
C 607.24 427.97 610.21 413.37 621.00 413.00
C 619.91 408.66 615.02 395.00 627.00 398.00 C 638.98 401.00 652.36 390.50 657.00 380.00
C 638.00 380.00 619.00 380.00 600.00 380.00
C 608.82 384.82 615.27 411.60 603.00 413.00 C 590.73 414.40 566.56 416.66 565.00 401.00 C 563.44 385.34 566.02 367.28 565.00 351.00 C 563.98 334.72 561.84 318.40 582.00 318.00
C 588.51 317.21 596.52 316.49 603.00 318.00
C 610.85 319.83 608.36 324.03 608.99 330.99 C 609.62 337.96 601.88 335.37 600.00 340.00
C 619.76 342.33 641.49 340.34 662.00 341.00
C 662.66 334.84 660.68 327.34 663.00 322.00
C 661.71 307.38 668.42 294.71 679.00 285.00
C 652.86 285.79 622.74 283.94 597.00 285.00 C 571.26 286.06 546.01 279.59 525.00 294.00
C 538.45 306.11 534.94 329.53 535.00 346.00 C 535.06 362.47 526.51 377.25 512.00 384.00
C 514.67 396.06 506.62 403.14 516.75 413.25 C 526.88 423.35 536.95 440.42 551.00 446.00 Z"/>
</g>
<g fill="#000000" fill-opacity="1.00" stroke="None">
<path d="
M 25.00 341.00 
C 32.39 342.64 41.39 340.74 49.00 341.00 C 56.61 341.26 65.44 341.94 73.00 341.00
C 83.93 338.29 88.77 323.73 91.69 314.69 C 94.62 305.66 107.62 288.30 94.00 286.00 C 80.38 283.70 62.37 287.62 49.00 286.00 C 35.63 284.39 31.73 302.72 28.93 310.93 C 26.13 319.14 14.53 337.13 25.00 341.00 Z"/>
</g>
<g fill="#000000" fill-opacity="1.00" stroke="None">
<path d="
M 185.00 286.00 
C 172.93 284.80 161.86 285.48 156.77 296.77 C 151.68 308.06 152.20 313.46 145.92 324.92 C 139.65 336.39 145.17 344.51 159.00 342.00 C 172.83 339.49 184.83 344.45 196.97 340.97 C 209.12 337.50 206.63 326.52 212.00 318.00
C 203.39 307.51 191.03 298.20 185.00 286.00 Z"/>
</g>
<g fill="#9DAED3" fill-opacity="1.00" stroke="None">
<path d="
M 525.00 349.00 
C 526.78 339.06 526.93 325.01 525.00 315.00
C 525.87 325.91 525.74 338.08 525.00 349.00 Z"/>
</g>
<g fill="#FCFCFD" fill-opacity="1.00" stroke="None">
<path d="
M 428.00 324.00 
C 430.25 331.11 428.40 340.14 429.00 348.00
C 439.67 348.00 450.33 348.00 461.00 348.00
C 474.08 349.67 479.25 324.74 467.69 319.31 C 456.14 313.87 437.01 318.61 424.00 317.00
C 425.96 319.11 427.16 321.35 428.00 324.00 Z"/>
</g>
<g fill="#95A7D0" fill-opacity="1.00" stroke="None">
<path d="
M 582.00 318.00 
C 588.80 317.86 596.24 317.25 603.00 318.00
C 596.52 316.49 588.51 317.21 582.00 318.00 Z"/>
</g>
<g fill="#98A9D1" fill-opacity="1.00" stroke="None">
<path d="
M 600.00 340.00 
C 601.37 343.92 612.52 341.50 619.00 342.00 C 625.48 342.50 634.11 341.74 641.00 342.00 C 647.89 342.26 656.00 341.81 663.00 342.00
C 663.00 335.33 663.00 328.67 663.00 322.00
C 660.68 327.34 662.66 334.84 662.00 341.00
C 641.49 340.34 619.76 342.33 600.00 340.00 Z"/>
</g>
<g fill="#8EA1CD" fill-opacity="1.00" stroke="None">
<path d="
M 461.00 348.00 
C 450.33 348.00 439.67 348.00 429.00 348.00
C 428.40 340.14 430.25 331.11 428.00 324.00
C 428.00 332.33 428.00 340.67 428.00 349.00
C 438.91 348.72 450.82 349.82 461.00 348.00 Z"/>
</g>
<g fill="#7C93C5" fill-opacity="1.00" stroke="None">
<path d="
M 375.00 411.00 
C 376.16 399.06 374.76 384.53 376.00 372.00 C 377.24 359.47 372.42 343.94 376.00 332.00
C 371.06 342.57 376.30 358.76 375.00 371.00 C 373.70 383.24 375.00 398.49 375.00 411.00 Z"/>
</g>
<g fill="#000000" fill-opacity="1.00" stroke="None">
<path d="
M 139.00 338.00 
C 131.42 334.91 117.20 338.62 109.00 338.00 C 100.80 337.38 88.19 335.49 81.25 340.25 C 74.31 345.01 75.34 352.54 71.32 360.32 C 67.30 368.10 67.52 372.03 62.98 381.98 C 58.43 391.93 70.61 394.22 80.00 393.00 C 89.39 391.78 100.84 392.53 110.00 393.00 C 119.16 393.47 125.15 387.61 127.22 380.22 C 129.30 372.83 134.47 364.99 136.08 359.08 C 137.68 353.16 146.86 341.20 139.00 338.00 Z"/>
</g>
<g fill="#000000" fill-opacity="1.00" stroke="None">
<path d="
M 230.00 338.00 
C 222.72 335.31 210.94 337.55 203.75 339.75 C 196.56 341.94 197.37 351.75 193.77 357.77 C 190.17 363.79 189.98 370.88 185.92 377.92 C 181.87 384.96 182.70 394.62 193.00 393.00 C 203.30 391.38 212.12 393.64 221.00 393.00 C 229.88 392.36 239.13 394.59 244.25 388.25 C 249.37 381.90 250.06 375.01 253.07 369.07 C 256.08 363.14 246.84 356.17 243.25 352.75 C 239.66 349.33 234.00 339.48 230.00 338.00 Z"/>
</g>
<g fill="#707070" fill-opacity="1.00" stroke="None">
<path d="
M 73.00 341.00 
C 65.44 341.94 56.61 341.26 49.00 341.00 C 41.39 340.74 32.39 342.64 25.00 341.00
C 31.73 343.48 41.32 341.71 49.00 342.00 C 56.68 342.29 66.06 342.72 73.00 341.00 Z"/>
</g>
<g fill="#9BACD3" fill-opacity="1.00" stroke="None">
<path d="
M 272.00 412.00 
C 272.93 402.41 276.29 383.18 272.00 374.00
C 273.71 379.73 271.36 386.98 272.00 393.00 C 272.64 399.02 272.00 405.90 272.00 412.00 Z"/>
</g>
<g fill="#97A8D1" fill-opacity="1.00" stroke="None">
<path d="
M 429.00 423.00 
C 429.00 410.49 429.83 396.76 428.00 385.00
C 425.25 389.79 429.46 399.57 428.00 405.00 C 426.54 410.43 428.54 418.20 429.00 423.00 Z"/>
</g>
<g fill="#3C5DAA" fill-opacity="1.00" stroke="None">
<path d="
M 671.00 388.00 
C 663.23 382.73 658.90 392.09 653.70 394.70 C 648.49 397.30 642.19 400.68 642.00 406.00
C 651.40 398.81 661.34 389.75 671.00 388.00 Z"/>
</g>
<g fill="#000000" fill-opacity="1.00" stroke="None">
<path d="
M 108.00 446.00 
C 115.39 447.64 124.39 445.74 132.00 446.00 C 139.61 446.26 148.44 446.94 156.00 446.00
C 166.93 443.29 171.71 428.70 174.69 419.69 C 177.68 410.69 190.67 393.34 177.00 391.00 C 163.33 388.66 145.42 392.71 132.00 391.00 C 118.59 389.29 114.77 407.78 111.98 415.98 C 109.18 424.17 97.59 442.16 108.00 446.00 Z"/>
</g>
<g fill="#000000" fill-opacity="1.00" stroke="None">
<path d="
M 226.00 446.00 
C 230.21 446.71 243.25 447.83 247.00 446.00
C 251.13 437.85 259.63 434.03 262.07 424.07 C 264.52 414.11 265.77 401.94 265.00 391.00
C 256.33 390.59 240.95 389.33 236.77 397.77 C 232.59 406.21 229.81 415.10 226.92 422.92 C 224.04 430.74 215.80 442.90 226.00 446.00 Z"/>
</g>
<g fill="#2E51A3" fill-opacity="1.00" stroke="None">
<path d="
M 661.00 400.00 
C 665.24 400.82 668.70 400.19 672.74 399.74 C 676.79 399.29 673.03 388.33 669.00 391.00
C 667.90 393.87 672.65 395.47 670.00 398.00
C 666.60 395.91 663.78 397.23 661.00 400.00 Z"/>
</g>
<g fill="#284DA1" fill-opacity="1.00" stroke="None">
<path d="
M 657.00 409.00 
C 653.30 410.84 652.86 406.27 651.00 406.00
C 643.48 411.79 634.12 401.21 626.00 405.00
C 631.17 406.19 636.00 408.42 641.00 410.00
C 636.71 411.78 630.89 407.54 626.00 407.00
C 628.02 413.08 636.27 413.49 641.00 417.00
C 638.95 422.65 634.73 416.26 631.00 417.00
C 635.65 420.64 631.76 418.54 629.00 420.00
C 631.90 420.92 634.09 423.40 637.00 424.00
C 633.37 433.36 624.58 419.16 618.00 420.00
C 620.81 423.95 616.20 429.02 618.00 433.00
C 619.60 432.47 618.72 430.25 619.00 429.00
C 620.77 431.98 620.13 431.68 622.00 429.00
C 622.00 428.00 622.00 427.00 622.00 426.00
C 627.56 426.40 631.92 431.17 637.00 432.00
C 634.82 445.95 611.42 442.78 615.00 428.00
C 611.65 433.31 615.23 440.50 619.00 444.00
C 613.97 443.24 603.30 440.34 601.00 446.00
C 636.84 444.72 674.00 448.59 709.00 444.00
C 704.99 441.69 698.83 443.65 694.00 443.00
C 698.42 437.97 699.74 429.84 696.00 424.00
C 699.71 433.25 690.63 444.58 680.23 440.77 C 669.84 436.96 672.88 422.72 681.00 420.00
C 677.57 424.66 672.36 432.87 680.00 437.00
C 678.08 432.78 676.16 426.39 682.00 424.00
C 683.44 425.89 682.89 430.08 686.00 430.00
C 685.03 425.54 682.96 421.43 682.00 417.00
C 685.09 417.84 688.25 418.17 691.00 420.00
C 690.24 417.90 689.08 416.71 689.00 415.00
C 678.10 413.09 672.46 420.64 669.00 429.00
C 668.55 430.10 668.08 431.50 667.00 432.00
C 664.83 433.01 660.95 431.79 659.00 431.00
C 659.53 429.40 661.75 430.28 663.00 430.00
C 664.17 429.57 665.79 430.33 667.00 430.00
C 664.72 429.15 665.33 426.74 668.00 427.00
C 668.00 427.00 667.91 426.48 668.00 426.00
C 666.17 426.02 663.54 426.33 663.00 424.00
C 665.00 424.00 667.00 424.00 669.00 424.00
C 669.00 424.00 668.91 423.48 669.00 423.00
C 666.82 423.05 663.37 423.72 662.00 422.00
C 663.77 419.97 667.48 421.47 670.00 421.00
C 670.51 418.31 661.79 421.69 660.00 419.00
C 663.20 416.14 669.73 419.83 673.00 417.00
C 668.81 414.09 661.26 417.89 657.00 415.00
C 664.19 415.46 671.07 414.53 678.00 414.00
C 673.48 411.08 665.59 414.91 661.00 412.00
C 667.51 411.23 673.13 407.29 680.00 408.00
C 677.98 405.78 673.84 407.59 671.00 407.00
C 681.52 402.36 669.30 403.25 664.00 402.00
C 662.75 401.87 661.84 401.40 659.77 402.79 C 657.70 404.17 655.95 400.37 657.00 401.00
C 657.09 397.20 651.46 401.71 652.00 404.00
C 655.49 403.29 661.74 406.64 657.00 409.00
M 651.00 411.00 
C 649.98 416.20 647.21 414.56 644.00 419.00
C 648.70 420.79 645.96 421.76 648.00 425.00
C 645.73 423.28 642.66 424.27 640.00 424.00
C 641.55 418.81 645.81 413.01 651.00 411.00
M 661.00 429.00 
C 657.51 428.24 657.43 422.90 656.00 420.00
C 659.14 420.89 660.63 425.78 661.00 429.00
M 647.00 434.00 
C 644.13 431.60 638.72 431.06 638.00 427.00
C 641.05 429.09 645.85 430.49 647.00 434.00
M 667.00 433.00 
C 663.58 435.21 658.18 433.42 654.00 434.00
C 657.42 431.79 662.82 433.58 667.00 433.00
M 674.00 440.00 
C 674.86 441.25 677.74 441.74 677.00 444.00
C 670.09 443.55 660.65 444.60 654.00 444.00 C 647.35 443.40 635.58 446.00 634.00 442.00
C 634.65 439.69 640.97 437.92 639.00 434.00
C 648.30 439.01 664.67 442.95 672.00 435.00
C 671.24 437.19 673.30 438.32 674.00 440.00 Z"/>
</g>
<g fill="#3456A6" fill-opacity="1.00" stroke="None">
<path d="
M 690.00 411.00 
C 687.87 406.03 683.17 398.97 677.00 399.00
C 680.23 403.20 686.52 406.16 690.00 411.00 Z"/>
</g>
<g fill="#8DA0CD" fill-opacity="1.00" stroke="None">
<path d="
M 664.00 402.00 
C 661.30 401.36 658.88 401.41 657.00 401.00
C 655.95 400.37 657.70 404.17 659.77 402.79 C 661.84 401.40 662.75 401.87 664.00 402.00 Z"/>
</g>
<g fill="#8B9FCC" fill-opacity="1.00" stroke="None">
<path d="
M 657.00 409.00 
C 656.07 406.77 653.24 405.92 651.00 406.00
C 652.86 406.27 653.30 410.84 657.00 409.00 Z"/>
</g>
<g fill="#CBD4E9" fill-opacity="1.00" stroke="None">
<path d="
M 651.00 411.00 
C 645.81 413.01 641.55 418.81 640.00 424.00
C 642.66 424.27 645.73 423.28 648.00 425.00
C 645.96 421.76 648.70 420.79 644.00 419.00
C 647.21 414.56 649.98 416.20 651.00 411.00 Z"/>
</g>
<g fill="#BDC9E3" fill-opacity="1.00" stroke="None">
<path d="
M 661.00 429.00 
C 660.63 425.78 659.14 420.89 656.00 420.00
C 657.43 422.90 657.51 428.24 661.00 429.00 Z"/>
</g>
<g fill="#AEBCDC" fill-opacity="1.00" stroke="None">
<path d="
M 669.00 423.00 
C 669.16 422.15 669.70 421.78 670.00 421.00
C 667.48 421.47 663.77 419.97 662.00 422.00
C 663.37 423.72 666.82 423.05 669.00 423.00 Z"/>
</g>
<g fill="#98AAD2" fill-opacity="1.00" stroke="None">
<path d="
M 668.00 426.00 
C 668.15 425.16 668.86 424.80 669.00 424.00
C 667.00 424.00 665.00 424.00 663.00 424.00
C 663.54 426.33 666.17 426.02 668.00 426.00 Z"/>
</g>
<g fill="#B9C5E1" fill-opacity="1.00" stroke="None">
<path d="
M 647.00 434.00 
C 645.85 430.49 641.05 429.09 638.00 427.00
C 638.72 431.06 644.13 431.60 647.00 434.00 Z"/>
</g>
<g fill="#9BACD3" fill-opacity="1.00" stroke="None">
<path d="
M 663.00 430.00 
C 663.70 430.09 666.43 431.26 667.00 432.00
C 668.08 431.50 668.55 430.10 669.00 429.00
C 668.98 428.10 666.36 429.54 668.00 427.00
C 665.33 426.74 664.72 429.15 667.00 430.00
C 665.79 430.33 664.17 429.57 663.00 430.00 Z"/>
</g>
<g fill="#B9C5E0" fill-opacity="1.00" stroke="None">
<path d="
M 618.00 433.00 
C 618.76 435.32 620.84 432.08 622.00 434.00
C 622.50 432.58 621.34 430.35 622.00 429.00
C 620.13 431.68 620.77 431.98 619.00 429.00
C 618.72 430.25 619.60 432.47 618.00 433.00 Z"/>
</g>
<g fill="#5975B7" fill-opacity="1.00" stroke="None">
<path d="
M 667.00 432.00 
C 666.43 431.26 663.70 430.09 663.00 430.00
C 661.75 430.28 659.53 429.40 659.00 431.00
C 660.95 431.79 664.83 433.01 667.00 432.00 Z"/>
</g>
<g fill="#607BB9" fill-opacity="1.00" stroke="None">
<path d="
M 667.00 433.00 
C 662.82 433.58 657.42 431.79 654.00 434.00
C 658.18 433.42 663.58 435.21 667.00 433.00 Z"/>
</g>
<g fill="#F8FAFB" fill-opacity="1.00" stroke="None">
<path d="
M 634.00 442.00 
C 647.09 444.33 662.15 442.34 676.00 443.00
C 675.70 441.75 674.17 441.29 674.00 440.00
C 673.30 438.32 671.24 437.19 672.00 435.00
C 664.67 442.95 648.30 439.01 639.00 434.00
C 640.97 437.92 634.65 439.69 634.00 442.00 Z"/>
</g>
<g fill="#7B90C5" fill-opacity="1.00" stroke="None">
<path d="
M 634.00 442.00 
C 635.58 446.00 647.35 443.40 654.00 444.00 C 660.65 444.60 670.09 443.55 677.00 444.00
C 677.74 441.74 674.86 441.25 674.00 440.00
C 674.17 441.29 675.70 441.75 676.00 443.00
C 662.15 442.34 647.09 444.33 634.00 442.00 Z"/>
</g>
<g fill="#9EADD4" fill-opacity="1.00" stroke="None">
<path d="
M 551.00 446.00 
C 556.95 448.36 567.18 447.00 574.00 447.00 C 580.82 447.00 591.44 449.24 595.00 444.00
C 591.06 448.18 580.27 446.11 574.00 446.00 C 567.73 445.89 557.27 447.53 551.00 446.00 Z"/>
</g>
<g fill="#9EADD4" fill-opacity="1.00" stroke="None">
<path d="
M 342.00 445.00 
C 314.81 446.67 284.26 446.66 257.00 445.00
C 256.08 448.24 271.68 446.86 277.00 447.00 C 282.32 447.14 294.09 446.99 300.00 447.00 C 305.91 447.01 317.68 447.12 323.00 447.00 C 328.32 446.88 342.91 448.22 342.00 445.00 Z"/>
</g>
<g fill="#9DADD4" fill-opacity="1.00" stroke="None">
<path d="
M 438.00 446.00 
C 412.15 445.33 385.10 447.33 360.00 445.00
C 359.07 448.28 371.77 446.86 377.00 447.00 C 382.23 447.14 391.94 447.01 398.00 447.00 C 404.06 446.99 412.74 447.18 419.00 447.00 C 425.26 446.82 432.51 447.94 438.00 446.00 Z"/>
</g>
<g fill="#9DADD4" fill-opacity="1.00" stroke="None">
<path d="
M 450.00 446.00 
C 456.12 448.02 465.13 446.75 472.00 447.00 C 478.87 447.25 487.47 446.94 494.00 447.00 C 500.53 447.06 511.38 447.06 517.00 447.00 C 522.62 446.94 535.89 448.12 535.00 445.00
C 507.66 447.33 478.17 445.33 450.00 446.00 Z"/>
</g>
<g fill="#939393" fill-opacity="1.00" stroke="None">
<path d="
M 156.00 446.00 
C 148.44 446.94 139.61 446.26 132.00 446.00 C 124.39 445.74 115.39 447.64 108.00 446.00
C 114.73 448.48 124.32 446.71 132.00 447.00 C 139.68 447.29 149.06 447.72 156.00 446.00 Z"/>
</g>
<g fill="#929292" fill-opacity="1.00" stroke="None">
<path d="
M 247.00 446.00 
C 243.25 447.83 230.21 446.71 226.00 446.00
C 230.29 447.30 242.94 448.90 247.00 446.00 Z"/>
</g>
<g fill="#12286A" fill-opacity="1.00" stroke="None">
<path d="
M 134.00 501.00 
C 133.20 497.57 132.70 494.43 134.00 491.00
C 138.28 483.56 144.40 477.31 149.00 470.00
C 144.00 470.00 139.00 470.00 134.00 470.00
C 134.28 474.18 131.07 479.00 127.00 480.00
C 126.38 476.43 121.72 474.31 123.00 470.00
C 118.00 470.00 113.00 470.00 108.00 470.00
C 114.21 481.47 130.70 493.61 120.00 508.00
C 125.33 508.00 130.67 508.00 136.00 508.00
C 134.66 505.70 134.60 503.57 134.00 501.00 Z"/>
</g>
<g fill="#11286A" fill-opacity="1.00" stroke="None">
<path d="
M 172.00 470.00 
C 165.00 470.00 158.00 470.00 151.00 470.00
C 152.39 482.79 148.75 497.06 142.00 508.00
C 147.33 508.00 152.67 508.00 158.00 508.00
C 152.46 500.65 160.63 498.59 167.00 500.00
C 167.28 502.81 166.80 505.49 166.00 508.00
C 171.00 508.00 176.00 508.00 181.00 508.00
C 175.21 496.71 171.17 482.68 172.00 470.00
M 162.00 479.00 
C 163.66 483.49 163.47 488.45 165.00 493.00
C 155.20 495.57 160.33 483.27 162.00 479.00 Z"/>
</g>
<g fill="#102769" fill-opacity="1.00" stroke="None">
<path d="
M 228.00 502.00 
C 226.07 494.89 226.09 483.04 228.00 476.00
C 227.07 473.38 230.20 472.34 230.00 470.00
C 224.67 470.00 219.33 470.00 214.00 470.00
C 220.90 476.63 210.47 484.34 208.00 491.00
C 204.59 485.07 194.62 476.77 201.00 470.00
C 195.67 470.00 190.33 470.00 185.00 470.00
C 189.59 481.11 189.78 496.74 185.00 508.00
C 190.33 508.00 195.67 508.00 201.00 508.00
C 198.45 503.78 197.52 499.06 198.00 494.00
C 202.21 495.23 203.20 507.56 207.92 506.92 C 212.64 506.27 213.77 495.93 216.00 493.00
C 218.24 497.26 217.18 504.11 214.00 508.00
C 219.33 508.00 224.67 508.00 230.00 508.00
C 229.13 505.91 228.59 504.19 228.00 502.00 Z"/>
</g>
<g fill="#11286A" fill-opacity="1.00" stroke="None">
<path d="
M 263.00 470.00 
C 256.00 470.00 249.00 470.00 242.00 470.00
C 243.41 482.79 239.71 497.04 233.00 508.00
C 238.33 508.00 243.67 508.00 249.00 508.00
C 243.07 500.84 251.84 498.48 258.00 500.00
C 258.28 502.81 257.80 505.49 257.00 508.00
C 262.00 508.00 267.00 508.00 272.00 508.00
C 266.16 496.58 261.96 482.73 263.00 470.00
M 256.00 493.00 
C 245.64 495.26 252.89 484.42 252.00 479.00
C 255.67 482.24 253.91 488.63 256.00 493.00 Z"/>
</g>
<g fill="#132A6B" fill-opacity="1.00" stroke="None">
<path d="
M 308.00 502.00 
C 306.07 494.89 306.09 483.04 308.00 476.00
C 307.07 473.38 310.20 472.34 310.00 470.00
C 304.67 470.00 299.33 470.00 294.00 470.00
C 297.01 473.54 300.30 485.97 293.01 485.99 C 285.72 486.01 289.37 474.06 291.00 470.00
C 285.67 470.00 280.33 470.00 275.00 470.00
C 279.86 480.71 279.87 497.26 275.00 508.00
C 280.33 508.00 285.67 508.00 291.00 508.00
C 288.15 502.04 286.26 489.46 297.00 493.00
C 297.02 498.25 297.66 503.94 294.00 508.00
C 299.33 508.00 304.67 508.00 310.00 508.00
C 309.13 505.91 308.59 504.19 308.00 502.00 Z"/>
</g>
<g fill="#11286A" fill-opacity="1.00" stroke="None">
<path d="
M 344.00 470.00 
C 337.00 470.00 330.00 470.00 323.00 470.00
C 323.92 482.75 320.29 496.68 314.00 508.00
C 319.00 508.00 324.00 508.00 329.00 508.00
C 329.09 505.18 327.33 502.94 328.00 500.00
C 334.11 498.50 343.00 500.84 337.00 508.00
C 342.33 508.00 347.67 508.00 353.00 508.00
C 346.76 496.75 342.63 482.79 344.00 470.00
M 336.00 493.00 
C 325.75 495.32 333.47 484.32 333.00 479.00
C 335.43 482.84 335.91 488.17 336.00 493.00 Z"/>
</g>
<g fill="#12286A" fill-opacity="1.00" stroke="None">
<path d="
M 374.00 477.00 
C 375.70 483.87 375.68 494.20 374.00 501.00
C 374.60 503.74 372.00 505.46 372.00 508.00
C 376.67 508.00 381.33 508.00 386.00 508.00
C 384.64 503.82 384.76 497.58 385.00 494.00
C 388.25 497.58 389.43 502.95 389.00 508.00
C 394.33 508.00 399.67 508.00 405.00 508.00
C 402.91 502.71 397.14 498.85 396.00 493.00
C 401.00 493.70 402.11 489.61 403.00 486.00
C 403.34 483.22 403.60 478.73 403.00 476.00
C 397.96 464.85 381.89 472.05 372.00 470.00
C 372.85 472.36 373.40 474.58 374.00 477.00
M 393.00 478.00 
C 395.80 487.65 382.11 486.92 384.00 478.00
C 387.00 478.00 390.00 478.00 393.00 478.00 Z"/>
</g>
<g fill="#132A6B" fill-opacity="1.00" stroke="None">
<path d="
M 411.00 477.00 
C 412.70 483.87 412.68 494.20 411.00 501.00
C 411.60 503.74 409.00 505.46 409.00 508.00
C 414.33 508.00 419.67 508.00 425.00 508.00
C 420.15 497.29 420.13 480.74 425.00 470.00
C 419.67 470.00 414.33 470.00 409.00 470.00
C 409.85 472.36 410.40 474.58 411.00 477.00 Z"/>
</g>
<g fill="#102769" fill-opacity="1.00" stroke="None">
<path d="
M 428.00 508.00 
C 436.51 507.10 445.46 509.24 453.92 507.92 C 462.39 506.61 459.68 495.13 460.00 489.00 C 460.32 482.87 461.70 470.81 453.00 470.00 C 444.30 469.19 436.61 470.61 428.00 470.00
C 432.80 481.14 432.46 496.83 428.00 508.00
M 449.00 480.00 
C 451.07 482.93 451.06 495.15 449.00 498.00
C 447.03 500.74 444.23 499.99 441.00 500.00
C 441.00 492.67 441.00 485.33 441.00 478.00
C 443.48 478.74 448.82 476.19 449.00 480.00 Z"/>
</g>
<g fill="#12296A" fill-opacity="1.00" stroke="None">
<path d="
M 493.00 470.00 
C 482.33 470.00 471.67 470.00 461.00 470.00
C 465.77 481.10 465.78 496.88 461.00 508.00
C 471.67 508.00 482.33 508.00 493.00 508.00
C 493.00 504.33 493.00 500.67 493.00 497.00
C 487.48 500.56 471.08 504.13 474.00 493.00
C 480.51 494.09 486.43 492.95 484.00 485.00
C 478.54 487.83 471.52 485.16 474.00 478.00
C 480.45 478.39 487.84 476.49 493.00 481.00
C 493.00 477.33 493.00 473.67 493.00 470.00 Z"/>
</g>
<g fill="#102769" fill-opacity="1.00" stroke="None">
<path d="
M 520.00 493.00 
C 528.79 493.44 531.85 476.83 525.08 471.92 C 518.31 467.02 504.12 471.62 496.00 470.00
C 500.25 481.15 501.11 496.80 496.00 508.00
C 501.00 508.00 506.00 508.00 511.00 508.00
C 508.48 504.14 508.07 497.88 510.00 494.00
C 511.93 498.50 514.70 502.76 514.00 508.00
C 519.33 508.00 524.67 508.00 530.00 508.00
C 526.13 503.33 522.51 498.51 520.00 493.00
M 509.00 485.00 
C 506.28 480.00 512.84 474.38 517.22 478.78 C 521.61 483.18 512.86 487.19 509.00 485.00 Z"/>
</g>
<g fill="#132A6B" fill-opacity="1.00" stroke="None">
<path d="
M 561.00 470.00 
C 549.29 472.38 534.90 463.73 532.00 480.00 C 529.10 496.27 551.05 488.37 551.00 500.00
C 544.89 499.50 537.74 501.74 533.00 497.00
C 533.00 500.73 533.32 504.62 532.00 508.00
C 539.58 505.88 550.30 511.16 557.25 507.25 C 564.20 503.34 561.96 495.61 559.92 489.08 C 557.87 482.55 542.94 488.28 542.01 482.01 C 541.07 475.74 557.07 476.76 560.00 481.00
C 560.00 477.27 559.68 473.38 561.00 470.00 Z"/>
</g>
<g fill="#11286A" fill-opacity="1.00" stroke="None">
<path d="
M 608.00 502.00 
C 607.33 499.52 606.44 496.14 607.00 493.00
C 600.62 492.65 593.72 491.75 597.00 500.00
C 593.77 499.99 590.97 500.74 589.00 498.00
C 587.00 495.23 586.38 479.73 590.00 478.00
C 595.70 476.36 598.88 479.93 596.00 485.00
C 599.67 485.00 603.33 485.00 607.00 485.00
C 606.41 479.55 607.81 474.52 610.00 470.00
C 602.92 472.00 583.77 465.74 579.77 473.77 C 575.78 481.80 576.04 496.26 579.70 504.30 C 583.37 512.33 602.92 505.91 610.00 508.00
C 609.13 505.91 608.59 504.19 608.00 502.00 Z"/>
</g>
<g fill="#12296A" fill-opacity="1.00" stroke="None">
<path d="
M 616.00 477.00 
C 617.70 483.87 617.68 494.20 616.00 501.00
C 616.60 503.74 614.00 505.46 614.00 508.00
C 624.00 508.00 634.00 508.00 644.00 508.00
C 644.00 504.33 644.00 500.67 644.00 497.00
C 639.53 501.50 632.84 499.65 627.00 500.00
C 628.34 490.14 623.94 478.36 630.00 470.00
C 624.67 470.00 619.33 470.00 614.00 470.00
C 614.85 472.36 615.40 474.58 616.00 477.00 Z"/>
</g>
<g fill="#11286A" fill-opacity="1.00" stroke="None">
<path d="
M 646.00 477.00 
C 647.74 484.02 645.65 492.49 647.00 500.00
C 650.69 511.67 672.32 511.65 676.00 500.00
C 677.35 492.49 675.28 483.96 677.00 477.00
C 676.40 474.26 679.00 472.54 679.00 470.00
C 673.67 470.00 668.33 470.00 663.00 470.00
C 669.19 477.74 663.92 482.03 666.00 492.00 C 668.08 501.97 654.95 501.99 657.00 492.00 C 659.05 482.01 654.03 477.88 660.00 470.00
C 654.67 470.00 649.33 470.00 644.00 470.00
C 644.85 472.36 645.40 474.58 646.00 477.00 Z"/>
</g>
<g fill="#102769" fill-opacity="1.00" stroke="None">
<path d="
M 711.00 489.00 
C 722.69 469.58 695.51 467.68 682.00 470.00
C 686.67 481.11 686.67 496.90 682.00 508.00
C 690.67 507.16 701.88 509.59 709.92 506.92 C 717.96 504.25 717.66 492.45 711.00 489.00
M 695.00 485.00 
C 692.12 479.43 699.28 474.91 702.89 479.11 C 706.50 483.30 698.61 486.71 695.00 485.00
M 695.00 500.00 
C 691.94 494.18 700.39 489.19 704.74 494.26 C 709.10 499.32 699.11 501.64 695.00 500.00 Z"/>
</g>
<g fill="#929BBA" fill-opacity="1.00" stroke="None">
<path d="
M 228.00 502.00 
C 226.92 494.42 226.92 483.58 228.00 476.00
C 226.09 483.04 226.07 494.89 228.00 502.00 Z"/>
</g>
<g fill="#9EA8C2" fill-opacity="1.00" stroke="None">
<path d="
M 308.00 502.00 
C 306.92 494.42 306.92 483.58 308.00 476.00
C 306.09 483.04 306.07 494.89 308.00 502.00 Z"/>
</g>
<g fill="#7582A8" fill-opacity="1.00" stroke="None">
<path d="
M 403.00 486.00 
C 403.83 482.64 404.28 479.47 403.00 476.00
C 403.60 478.73 403.34 483.22 403.00 486.00 Z"/>
</g>
<g fill="#6C7AA3" fill-opacity="1.00" stroke="None">
<path d="
M 374.00 501.00 
C 375.68 494.20 375.70 483.87 374.00 477.00
C 374.90 484.22 374.90 493.78 374.00 501.00 Z"/>
</g>
<g fill="#6E7BA3" fill-opacity="1.00" stroke="None">
<path d="
M 411.00 501.00 
C 412.68 494.20 412.70 483.87 411.00 477.00
C 411.90 484.22 411.90 493.78 411.00 501.00 Z"/>
</g>
<g fill="#7B88AB" fill-opacity="1.00" stroke="None">
<path d="
M 616.00 501.00 
C 617.68 494.20 617.70 483.87 616.00 477.00
C 616.90 484.22 616.90 493.78 616.00 501.00 Z"/>
</g>
<g fill="#8893B3" fill-opacity="1.00" stroke="None">
<path d="
M 647.00 500.00 
C 645.65 492.49 647.74 484.02 646.00 477.00
C 646.94 484.58 644.81 493.09 647.00 500.00 Z"/>
</g>
<g fill="#7380A7" fill-opacity="1.00" stroke="None">
<path d="
M 676.00 500.00 
C 678.17 493.14 676.06 484.58 677.00 477.00
C 675.28 483.96 677.35 492.49 676.00 500.00 Z"/>
</g>
<g fill="#F8F9FA" fill-opacity="1.00" stroke="None">
<path d="
M 393.00 478.00 
C 390.00 478.00 387.00 478.00 384.00 478.00
C 382.11 486.92 395.80 487.65 393.00 478.00 Z"/>
</g>
<g fill="#FAFBFC" fill-opacity="1.00" stroke="None">
<path d="
M 449.00 498.00 
C 450.11 495.76 450.09 482.25 449.00 480.00
C 448.82 476.19 443.48 478.74 441.00 478.00
C 441.00 485.33 441.00 492.67 441.00 500.00
C 444.23 499.99 447.03 500.74 449.00 498.00 Z"/>
</g>
<g fill="#F0F1F5" fill-opacity="1.00" stroke="None">
<path d="
M 509.00 485.00 
C 512.86 487.19 521.61 483.18 517.22 478.78 C 512.84 474.38 506.28 480.00 509.00 485.00 Z"/>
</g>
<g fill="#8B97B6" fill-opacity="1.00" stroke="None">
<path d="
M 589.00 498.00 
C 587.89 495.75 587.97 479.41 590.00 478.00
C 586.38 479.73 587.00 495.23 589.00 498.00 Z"/>
</g>
<g fill="#F1F2F6" fill-opacity="1.00" stroke="None">
<path d="
M 695.00 485.00 
C 698.61 486.71 706.50 483.30 702.89 479.11 C 699.28 474.91 692.12 479.43 695.00 485.00 Z"/>
</g>
<g fill="#DFE3EB" fill-opacity="1.00" stroke="None">
<path d="
M 162.00 479.00 
C 160.33 483.27 155.20 495.57 165.00 493.00
C 163.47 488.45 163.66 483.49 162.00 479.00 Z"/>
</g>
<g fill="#E4E6EE" fill-opacity="1.00" stroke="None">
<path d="
M 256.00 493.00 
C 253.91 488.63 255.67 482.24 252.00 479.00
C 252.89 484.42 245.64 495.26 256.00 493.00 Z"/>
</g>
<g fill="#DFE2EB" fill-opacity="1.00" stroke="None">
<path d="
M 336.00 493.00 
C 335.91 488.17 335.43 482.84 333.00 479.00
C 333.47 484.32 325.75 495.32 336.00 493.00 Z"/>
</g>
<g fill="#8691B3" fill-opacity="1.00" stroke="None">
<path d="
M 449.00 498.00 
C 451.06 495.15 451.07 482.93 449.00 480.00
C 450.09 482.25 450.11 495.76 449.00 498.00 Z"/>
</g>
<g fill="#828EB1" fill-opacity="1.00" stroke="None">
<path d="
M 134.00 501.00 
C 133.69 498.21 133.37 493.73 134.00 491.00
C 132.70 494.43 133.20 497.57 134.00 501.00 Z"/>
</g>
<g fill="#7E8BB0" fill-opacity="1.00" stroke="None">
<path d="
M 608.00 502.00 
C 607.65 499.56 609.17 494.52 607.00 493.00
C 606.44 496.14 607.33 499.52 608.00 502.00 Z"/>
</g>
<g fill="#F0F1F5" fill-opacity="1.00" stroke="None">
<path d="
M 695.00 500.00 
C 699.11 501.64 709.10 499.32 704.74 494.26 C 700.39 489.19 691.94 494.18 695.00 500.00 Z"/>
</g>
</svg>
